<svg id="Layer_1" data-name="Layer 1" xmlns="http://www.w3.org/2000/svg" xmlns:xlink="http://www.w3.org/1999/xlink" viewBox="0 0 64 64"><defs><style>.cls-1{fill:none;}.cls-2{isolation:isolate;}.cls-3{clip-path:url(#clip-path);}.cls-4{clip-path:url(#clip-path-2);}.cls-5{fill:#a8661c;}.cls-6{fill:#a3631b;}.cls-7{fill:#9e5f1a;}.cls-8{fill:#995c19;}.cls-9{fill:#945918;}.cls-10{fill:#8f5618;}.cls-11{fill:#8a5317;}.cls-12{fill:#855016;}.cls-13{clip-path:url(#clip-path-3);}.cls-14{clip-path:url(#clip-path-4);}.cls-15{clip-path:url(#clip-path-5);}.cls-16{fill:#824f15;}.cls-17{clip-path:url(#clip-path-6);}.cls-18{clip-path:url(#clip-path-7);}.cls-19{clip-path:url(#clip-path-8);}.cls-20{clip-path:url(#clip-path-9);}.cls-21{fill:#b46d1e;}.cls-22{clip-path:url(#clip-path-10);}.cls-23{clip-path:url(#clip-path-11);}.cls-24{clip-path:url(#clip-path-12);}.cls-25{clip-path:url(#clip-path-13);}.cls-26{fill:#ff9a2a;}.cls-27{clip-path:url(#clip-path-14);}.cls-28{fill:#828282;}.cls-29{clip-path:url(#clip-path-15);}.cls-30{clip-path:url(#clip-path-16);}.cls-31{clip-path:url(#clip-path-17);}.cls-32{fill:#858585;}.cls-33{clip-path:url(#clip-path-18);}.cls-34{clip-path:url(#clip-path-19);}.cls-35{clip-path:url(#clip-path-20);}.cls-36{clip-path:url(#clip-path-21);}.cls-37{clip-path:url(#clip-path-22);}.cls-38{clip-path:url(#clip-path-23);}.cls-39{clip-path:url(#clip-path-24);}.cls-40{clip-path:url(#clip-path-25);}.cls-41{clip-path:url(#clip-path-26);}.cls-42{clip-path:url(#clip-path-27);}.cls-43{clip-path:url(#clip-path-28);}.cls-44{clip-path:url(#clip-path-29);}.cls-45{clip-path:url(#clip-path-30);}.cls-46{fill:#a8a8a8;}.cls-47{fill:#a3a3a3;}.cls-48{fill:#9e9e9e;}.cls-49{clip-path:url(#clip-path-31);}.cls-50{clip-path:url(#clip-path-32);}.cls-51{fill:#8a8a8a;}.cls-52{fill:#8f8f8f;}.cls-53{fill:#949494;}.cls-54{fill:#999;}.cls-55{fill:#b4b4b4;}.cls-56{fill:#dfdfdf;}.cls-57{clip-path:url(#clip-path-33);}.cls-58{clip-path:url(#clip-path-34);}.cls-59{clip-path:url(#clip-path-35);}.cls-60{clip-path:url(#clip-path-36);}.cls-61{clip-path:url(#clip-path-37);}.cls-62{clip-path:url(#clip-path-38);}.cls-63{clip-path:url(#clip-path-39);}.cls-64{clip-path:url(#clip-path-40);}.cls-65{clip-path:url(#clip-path-41);}.cls-66{clip-path:url(#clip-path-42);}.cls-67{clip-path:url(#clip-path-43);}.cls-68{clip-path:url(#clip-path-44);}.cls-69{clip-path:url(#clip-path-45);}.cls-70{clip-path:url(#clip-path-46);}.cls-71{clip-path:url(#clip-path-47);}.cls-72{clip-path:url(#clip-path-48);}.cls-73{fill:#231f20;}</style><clipPath id="clip-path"><path class="cls-1" d="M52.93,51.56,42.34,45.8a1.77,1.77,0,0,0,1.44-1.75l10.59,5.76A1.77,1.77,0,0,1,52.93,51.56Z"/></clipPath><clipPath id="clip-path-2"><path class="cls-1" d="M37.44,41.7c2.7-.37,3.84-2.53,3.84-5.71l10.59,5.76c0,3.18-1.15,5.34-3.84,5.71Z"/></clipPath><clipPath id="clip-path-3"><path class="cls-1" d="M46.81,45.44,36.22,39.68a1.3,1.3,0,0,0,.8.15l10.59,5.76A1.29,1.29,0,0,1,46.81,45.44Z"/></clipPath><clipPath id="clip-path-4"><path class="cls-1" d="M45.51,47.29,34.92,41.53a4.17,4.17,0,0,0,2.52.17L48,47.46A4.17,4.17,0,0,1,45.51,47.29Z"/></clipPath><clipPath id="clip-path-5"><path class="cls-1" d="M45.51,47.29,34.92,41.53a.74.74,0,0,1-.42-.45l10.59,5.76A.74.74,0,0,0,45.51,47.29Z"/></clipPath><clipPath id="clip-path-6"><path class="cls-1" d="M41.28,36c0-1.81-.44-3.79-1.82-4.54L50,37.21c1.39.75,1.84,2.73,1.83,4.54Z"/></clipPath><clipPath id="clip-path-7"><path class="cls-1" d="M37.84,33.5l10.58,5.76a3.11,3.11,0,0,1,1.23,2.8c0,1.79-.92,3.37-2,3.53L37,39.83c1.12-.16,2-1.74,2-3.53A3.16,3.16,0,0,0,37.84,33.5Z"/></clipPath><clipPath id="clip-path-8"><path class="cls-1" d="M43.15,22.82l10.59,5.76a1.34,1.34,0,0,1,.67,1.22L43.82,24A1.34,1.34,0,0,0,43.15,22.82Z"/></clipPath><clipPath id="clip-path-9"><path class="cls-1" d="M37,33.35a1.33,1.33,0,0,1,.81.15l10.58,5.76a1.29,1.29,0,0,0-.8-.15Z"/></clipPath><clipPath id="clip-path-10"><path class="cls-1" d="M36.22,39.68A3.14,3.14,0,0,1,35,36.88l10.59,5.76a3.11,3.11,0,0,0,1.23,2.8Z"/></clipPath><clipPath id="clip-path-11"><path class="cls-1" d="M43.15,22.82l10.59,5.76a1.21,1.21,0,0,0-.76-.13L42.39,22.69A1.21,1.21,0,0,1,43.15,22.82Z"/></clipPath><clipPath id="clip-path-12"><path class="cls-1" d="M39.46,31.45,50,37.21a3,3,0,0,0-1.87-.28L37.58,31.17A3,3,0,0,1,39.46,31.45Z"/></clipPath><clipPath id="clip-path-13"><path class="cls-1" d="M35,36.88c0-1.79.92-3.37,2-3.53l10.59,5.76c-1.12.16-2,1.74-2,3.53Z"/></clipPath><clipPath id="clip-path-14"><path class="cls-1" d="M45.11,38.17,34.52,32.41a8.6,8.6,0,0,1,3.06-1.24l10.59,5.76A8.53,8.53,0,0,0,45.11,38.17Z"/></clipPath><clipPath id="clip-path-15"><path class="cls-1" d="M36.1,49.14,25.51,43.38c2.4-.34,2.74-1.86,2.76-1.94L38.86,47.2C38.84,47.28,38.5,48.8,36.1,49.14Z"/></clipPath><clipPath id="clip-path-16"><path class="cls-1" d="M43.84,13.49a2.59,2.59,0,0,0-1.21-1.84l10.59,5.76a2.62,2.62,0,0,1,1.21,1.84Z"/></clipPath><clipPath id="clip-path-17"><path class="cls-1" d="M41.11,13.57,51.7,19.33a1,1,0,0,1,.48,1L41.59,14.57A1,1,0,0,0,41.11,13.57Z"/></clipPath><clipPath id="clip-path-18"><path class="cls-1" d="M40.38,13.42a1.56,1.56,0,0,1,.73.15L51.7,19.33a1.59,1.59,0,0,0-.73-.15Z"/></clipPath><clipPath id="clip-path-19"><path class="cls-1" d="M36,46.71,25.4,41a1.24,1.24,0,0,0,.81.15,3.71,3.71,0,0,0,2-1.46L38.8,45.4a3.71,3.71,0,0,1-2,1.46A1.24,1.24,0,0,1,36,46.71Z"/></clipPath><clipPath id="clip-path-20"><path class="cls-1" d="M34.08,48.85,23.49,43.09a3.2,3.2,0,0,0,2,.29L36.1,49.14A3.2,3.2,0,0,1,34.08,48.85Z"/></clipPath><clipPath id="clip-path-21"><path class="cls-1" d="M36,46.71,25.4,41a2.1,2.1,0,0,1-.78-.81L35.21,45.9A2,2,0,0,0,36,46.71Z"/></clipPath><clipPath id="clip-path-22"><path class="cls-1" d="M34.08,48.85,23.49,43.09a3.16,3.16,0,0,1-1.45-2l10.59,5.76A3.16,3.16,0,0,0,34.08,48.85Z"/></clipPath><clipPath id="clip-path-23"><path class="cls-1" d="M20.61,35.73a3.24,3.24,0,0,0-1.38-1.53L29.82,40a3.31,3.31,0,0,1,1.38,1.53C28,39.76,23,38.41,20.61,35.73Z"/></clipPath><clipPath id="clip-path-24"><path class="cls-1" d="M20.81,55.83,10.22,50.07a1.21,1.21,0,0,0,.78.14L21.59,56A1.2,1.2,0,0,1,20.81,55.83Z"/></clipPath><clipPath id="clip-path-25"><path class="cls-1" d="M17.48,36.22,28.07,42a2.73,2.73,0,0,1,.85.78L18.33,37A2.73,2.73,0,0,0,17.48,36.22Z"/></clipPath><clipPath id="clip-path-26"><path class="cls-1" d="M20.81,55.83,10.22,50.07a1.31,1.31,0,0,1-.66-1.21l10.58,5.76A1.33,1.33,0,0,0,20.81,55.83Z"/></clipPath><clipPath id="clip-path-27"><path class="cls-1" d="M16.53,36a1.52,1.52,0,0,1,.95.18L28.07,42a1.52,1.52,0,0,0-.95-.18L16.53,36,27.12,41.8a3.33,3.33,0,0,0-1.95,1.49L14.58,37.53A3.33,3.33,0,0,1,16.53,36Z"/></clipPath><clipPath id="clip-path-28"><path class="cls-1" d="M19.23,34.2,29.82,40a2.93,2.93,0,0,0-1.89-.3,6.25,6.25,0,0,0-2.76,1.25L14.58,35.15a6.25,6.25,0,0,1,2.76-1.25A2.93,2.93,0,0,1,19.23,34.2Z"/></clipPath><clipPath id="clip-path-29"><path class="cls-1" d="M40.17,13.43h.21L51,19.18h-.21L40.2,13.44l6,3.25,1.38.75,1.33.73.65.35.63.34c.18.1.4.33.6.33h0L40.17,13.43Z"/></clipPath><clipPath id="clip-path-30"><path class="cls-1" d="M42.63,11.65l10.59,5.76a2.82,2.82,0,0,0-1.75-.25L40.88,11.4A2.81,2.81,0,0,1,42.63,11.65Z"/></clipPath><clipPath id="clip-path-31"><path class="cls-1" d="M38.35,15.25c0-.08.61-1.65,1.82-1.82l10.59,5.76c-1.21.17-1.79,1.74-1.82,1.82Z"/></clipPath><clipPath id="clip-path-32"><path class="cls-1" d="M49,18.59,38.36,12.83c0-.06.41-1.13,2.52-1.43l10.59,5.76C49.36,17.46,49,18.53,49,18.59Z"/></clipPath><clipPath id="clip-path-33"><path class="cls-1" d="M34.49,12.79l10.58,5.76a1.07,1.07,0,0,1,.31.22L34.79,13A1,1,0,0,0,34.49,12.79Z"/></clipPath><clipPath id="clip-path-34"><path class="cls-1" d="M34,14.87c.19.09.42.24.61.33l1.94,1.06,2.74,1.49,5.3,2.88a2,2,0,0,0-1.09-.18L32.92,14.69l10.59,5.76c-1.16.16-1.42,1.58-1.43,1.65L31.49,16.34c0-.07.27-1.49,1.43-1.65A2,2,0,0,1,34,14.87Z"/></clipPath><clipPath id="clip-path-35"><path class="cls-1" d="M34.49,12.79l10.58,5.76a2,2,0,0,0-1.25-.21,3.36,3.36,0,0,0-1.73.89L31.5,13.47a3.36,3.36,0,0,1,1.73-.89A2,2,0,0,1,34.49,12.79Z"/></clipPath><clipPath id="clip-path-36"><path class="cls-1" d="M31.88,28.88,21.29,23.12a3.94,3.94,0,0,0,2.4.41A5.58,5.58,0,0,0,28.19,18a4.2,4.2,0,0,0-2.08-3.81L36.69,20a4.2,4.2,0,0,1,2.09,3.81,5.58,5.58,0,0,1-4.5,5.49A3.93,3.93,0,0,1,31.88,28.88Z"/></clipPath><clipPath id="clip-path-37"><path class="cls-1" d="M33.28,26.91,22.7,21.15a1.58,1.58,0,0,0,1,.18l10.59,5.76A1.62,1.62,0,0,1,33.28,26.91Z"/></clipPath><clipPath id="clip-path-38"><path class="cls-1" d="M24.7,16.2,35.29,22a2.38,2.38,0,0,1,1.09,2.17,2.89,2.89,0,0,1-2.1,3L23.69,21.33a2.91,2.91,0,0,0,2.11-3A2.41,2.41,0,0,0,24.7,16.2Z"/></clipPath><clipPath id="clip-path-39"><path class="cls-1" d="M26.11,14.23,36.69,20a3.78,3.78,0,0,0-2.4-.41L23.71,13.82A3.8,3.8,0,0,1,26.11,14.23Z"/></clipPath><clipPath id="clip-path-40"><path class="cls-1" d="M33.28,26.91,22.7,21.15A2.41,2.41,0,0,1,21.6,19,2.87,2.87,0,0,1,23.7,16a1.56,1.56,0,0,1,1,.18L35.29,22a1.56,1.56,0,0,0-1-.18,2.87,2.87,0,0,0-2.1,2.94A2.4,2.4,0,0,0,33.28,26.91Z"/></clipPath><clipPath id="clip-path-41"><path class="cls-1" d="M31.88,28.88,21.29,23.12A4.23,4.23,0,0,1,19.2,19.3a5.6,5.6,0,0,1,4.51-5.48l10.58,5.76a5.6,5.6,0,0,0-4.5,5.48A4.23,4.23,0,0,0,31.88,28.88Z"/></clipPath><clipPath id="clip-path-42"><path class="cls-1" d="M26.67,25.37,16.08,19.61c.13,0,2.53-.8,2.53-4.3L29.2,21.07C29.2,24.57,26.8,25.33,26.67,25.37Z"/></clipPath><clipPath id="clip-path-43"><path class="cls-1" d="M20.18,34.61,9.59,28.85A1.79,1.79,0,0,1,11,27.1l10.59,5.76A1.79,1.79,0,0,0,20.18,34.61Z"/></clipPath><clipPath id="clip-path-44"><path class="cls-1" d="M25.91,23.26,15.32,17.5a2.66,2.66,0,0,0,1-1.9l10.59,5.76A2.66,2.66,0,0,1,25.91,23.26Z"/></clipPath><clipPath id="clip-path-45"><path class="cls-1" d="M17.12,12l10.59,5.76c.68.37,1.5,1.24,1.49,3.33L18.61,15.31C18.62,13.22,17.81,12.35,17.12,12Z"/></clipPath><clipPath id="clip-path-46"><path class="cls-1" d="M15.33,14.07l10.59,5.76a1.78,1.78,0,0,1,1,1.53L16.32,15.6A1.78,1.78,0,0,0,15.33,14.07Z"/></clipPath><clipPath id="clip-path-47"><path class="cls-1" d="M15.33,14.07l10.59,5.76-.14-.07L15.19,14Z"/></clipPath><clipPath id="clip-path-48"><path class="cls-1" d="M17.12,12l10.59,5.76a2.15,2.15,0,0,0-.9-.27L16.22,11.71A2.12,2.12,0,0,1,17.12,12Z"/></clipPath></defs><title>social platforms for adult</title><g class="cls-2"><g class="cls-3"><g class="cls-2"><path d="M52.93,51.56,42.34,45.8a1.62,1.62,0,0,0,.43-.12l10.59,5.76a1.62,1.62,0,0,1-.43.12"/><path d="M53.36,51.44,42.77,45.68l.23-.14L53.59,51.3l-.23.14"/><path d="M53.59,51.3,43,45.54l.17-.14,10.59,5.76-.17.14"/><path d="M53.76,51.16,43.17,45.4l.15-.14L53.91,51l-.15.14"/><path d="M53.91,51,43.32,45.26l.13-.17L54,50.85l-.13.17"/><path d="M54,50.85,43.45,45.09a1.18,1.18,0,0,0,.11-.19l10.59,5.76a1.18,1.18,0,0,1-.11.19"/><path d="M54.15,50.66,43.56,44.9a.88.88,0,0,0,.11-.24l10.59,5.76a1.33,1.33,0,0,1-.11.24"/><path d="M54.26,50.42,43.67,44.66a1.78,1.78,0,0,0,.11-.61l10.59,5.76a1.78,1.78,0,0,1-.11.61"/></g></g></g><polygon points="54.37 49.81 43.78 44.05 43.82 24.04 54.41 29.8 54.37 49.81"/><g class="cls-2"><g class="cls-4"><g class="cls-2"><path class="cls-5" d="M48,47.46,37.44,41.7a4.42,4.42,0,0,0,1.32-.37l10.59,5.76a4.42,4.42,0,0,1-1.32.37"/><path class="cls-6" d="M49.35,47.09,38.76,41.33a4.17,4.17,0,0,0,.55-.32L49.9,46.77a4.17,4.17,0,0,1-.55.32"/><path class="cls-7" d="M49.9,46.77,39.31,41c.13-.09.25-.19.37-.29l10.59,5.76c-.12.1-.24.2-.37.29"/><path class="cls-8" d="M50.27,46.48,39.68,40.72c.11-.1.21-.2.31-.31l10.58,5.76a2.91,2.91,0,0,1-.3.31"/><path class="cls-9" d="M50.57,46.17,40,40.41c.09-.11.19-.23.27-.35l10.59,5.76c-.09.12-.18.24-.28.35"/><path class="cls-10" d="M50.85,45.82,40.26,40.06a4,4,0,0,0,.27-.44l10.59,5.76a4,4,0,0,1-.27.44"/><path class="cls-11" d="M51.12,45.38,40.53,39.62a5.89,5.89,0,0,0,.3-.67l10.59,5.76a5.89,5.89,0,0,1-.3.67"/><path class="cls-12" d="M51.42,44.71,40.83,39a8.53,8.53,0,0,0,.45-3c0-1.81-.44-3.79-1.82-4.54L50,37.21c1.39.75,1.84,2.73,1.83,4.54a8.53,8.53,0,0,1-.45,3"/></g></g></g><g class="cls-2"><g class="cls-13"><g class="cls-2"><path d="M46.81,45.44,36.22,39.68l.05,0,10.59,5.76,0,0"/><path d="M46.86,45.47,36.27,39.71a1.25,1.25,0,0,0,.25.09l10.59,5.76a1.25,1.25,0,0,1-.25-.09"/><path d="M47.11,45.56,36.52,39.8a1.39,1.39,0,0,0,.5,0l10.59,5.76a1.39,1.39,0,0,1-.5,0"/></g></g></g><g class="cls-2"><g class="cls-14"><g class="cls-2"><path class="cls-7" d="M45.51,47.29,34.92,41.53l0,0,10.59,5.76-.05,0"/><path class="cls-6" d="M45.56,47.32,35,41.56a2,2,0,0,0,.37.13l10.59,5.76a2,2,0,0,1-.37-.13"/><path class="cls-5" d="M45.93,47.45,35.34,41.69a5.43,5.43,0,0,0,2.1,0L48,47.46a5.42,5.42,0,0,1-2.1,0"/></g></g></g><g class="cls-2"><g class="cls-15"><g class="cls-2"><path d="M45.51,47.29,34.92,41.53a.74.74,0,0,1-.42-.45l10.59,5.76a.74.74,0,0,0,.42.45"/></g></g></g><polygon points="21.59 55.97 11 50.21 42.34 45.8 52.93 51.56 21.59 55.97"/><polygon class="cls-16" points="45.09 47.88 34.5 42.12 34.5 41.08 45.09 46.84 45.09 47.88"/><g class="cls-2"><g class="cls-17"><g class="cls-2"><path class="cls-12" d="M51.42,44.71,40.83,39a8.53,8.53,0,0,0,.45-3c0-1.81-.44-3.79-1.82-4.54L50,37.21c1.39.75,1.84,2.73,1.83,4.54a8.53,8.53,0,0,1-.45,3"/></g></g></g><g class="cls-2"><g class="cls-18"><g class="cls-2"><path d="M47.61,45.59,37,39.83a1.23,1.23,0,0,0,.41-.13L48,45.46a1.23,1.23,0,0,1-.41.13"/><path d="M48,45.46,37.43,39.7l.26-.14,10.59,5.76-.26.14"/><path d="M48.28,45.32,37.69,39.56l.21-.17,10.59,5.76-.21.17"/><path d="M48.49,45.15,37.9,39.39l.2-.2L48.69,45c-.07.07-.13.14-.2.2"/><path d="M48.69,45,38.1,39.19c.07-.09.14-.17.21-.27l10.58,5.76a2.69,2.69,0,0,1-.2.27"/><path d="M48.89,44.68,38.31,38.92a4.05,4.05,0,0,0,.21-.35l10.59,5.76a2.56,2.56,0,0,1-.22.35"/><path d="M49.11,44.33,38.52,38.57a4.41,4.41,0,0,0,.24-.54l10.59,5.76a4.41,4.41,0,0,1-.24.54"/><path d="M49.35,43.79,38.76,38a5.32,5.32,0,0,0,.31-1.73,3.16,3.16,0,0,0-1.23-2.8l10.58,5.76a3.11,3.11,0,0,1,1.23,2.8,5.06,5.06,0,0,1-.3,1.73"/></g></g></g><g class="cls-2"><g class="cls-19"><g class="cls-2"><path d="M54.41,29.8,43.82,24a1.34,1.34,0,0,0-.67-1.22l10.59,5.76a1.34,1.34,0,0,1,.67,1.22"/></g></g></g><g class="cls-2"><g class="cls-20"><g class="cls-2"><path class="cls-5" d="M47.62,39.11,37,33.35a1.39,1.39,0,0,1,.5,0l10.59,5.76a1.39,1.39,0,0,0-.5,0"/><path class="cls-6" d="M48.12,39.14,37.53,33.38a1.09,1.09,0,0,1,.25.1l10.59,5.76a1.3,1.3,0,0,0-.25-.1"/><path class="cls-7" d="M48.37,39.24,37.78,33.48l.06,0,10.58,5.76-.05,0"/></g></g></g><polygon class="cls-21" points="42.63 48.22 32.05 42.46 34.5 42.12 45.09 47.88 42.63 48.22"/><g class="cls-2"><g class="cls-22"><g class="cls-2"><path class="cls-12" d="M46.81,45.44,36.22,39.68A3.14,3.14,0,0,1,35,36.88a5.06,5.06,0,0,1,.3-1.73l10.59,5.76a5.06,5.06,0,0,0-.3,1.73,3.11,3.11,0,0,0,1.23,2.8"/></g></g></g><g class="cls-2"><g class="cls-23"><g class="cls-2"><path class="cls-5" d="M53,28.45,42.39,22.69a1.33,1.33,0,0,1,.49,0l10.59,5.76a1.33,1.33,0,0,0-.49,0"/><path class="cls-6" d="M53.47,28.48,42.88,22.72l.23.08L53.7,28.56l-.23-.08"/><path class="cls-7" d="M53.7,28.56,43.11,22.8l0,0,10.59,5.76,0,0"/></g></g></g><g class="cls-2"><g class="cls-24"><g class="cls-2"><path d="M48.17,36.93,37.58,31.17a3.39,3.39,0,0,1,1.29,0L49.46,37a3.39,3.39,0,0,0-1.29,0"/><path d="M49.46,37,38.87,31.22a3.68,3.68,0,0,1,.5.18L50,37.16a3.12,3.12,0,0,0-.49-.18"/><path d="M50,37.16,39.37,31.4l.09.05L50,37.21,50,37.16"/></g></g></g><g class="cls-2"><g class="cls-25"><g class="cls-2"><path class="cls-12" d="M46.81,45.44,36.22,39.68A3.14,3.14,0,0,1,35,36.88a5.06,5.06,0,0,1,.3-1.73l10.59,5.76a5.06,5.06,0,0,0-.3,1.73,3.11,3.11,0,0,0,1.23,2.8"/><path class="cls-11" d="M45.88,40.91,35.29,35.15a4.41,4.41,0,0,1,.24-.54l10.59,5.76a4.41,4.41,0,0,0-.24.54"/><path class="cls-10" d="M46.12,40.37,35.53,34.61c.07-.12.14-.24.22-.35L46.34,40c-.08.11-.15.23-.22.35"/><path class="cls-9" d="M46.34,40,35.75,34.26A2.56,2.56,0,0,1,36,34l10.59,5.76a2.56,2.56,0,0,0-.2.26"/><path class="cls-8" d="M46.54,39.76,36,34l.2-.21,10.59,5.76-.2.21"/><path class="cls-7" d="M46.74,39.55,36.15,33.79l.22-.16L47,39.39l-.21.16"/><path class="cls-6" d="M47,39.39,36.37,33.63a1.28,1.28,0,0,1,.25-.15l10.59,5.76a1.74,1.74,0,0,0-.26.15"/><path class="cls-5" d="M47.21,39.24,36.62,33.48a1.51,1.51,0,0,1,.41-.13l10.59,5.76a1.51,1.51,0,0,0-.41.13"/></g></g></g><path class="cls-26" d="M47.62,39.11c1.13-.15,2,1.17,2,3s-.92,3.37-2,3.53-2-1.17-2-3S46.5,39.27,47.62,39.11Z"/><polygon points="52.17 26.77 41.58 21.01 43.83 20.7 54.42 26.46 52.17 26.77"/><g class="cls-2"><g class="cls-27"><g class="cls-2"><path d="M45.11,38.17,34.52,32.41c.41-.24.8-.45,1.16-.63l10.59,5.76c-.36.18-.75.39-1.16.63"/><path d="M46.27,37.54,35.68,31.78a7.11,7.11,0,0,1,1.9-.61l10.59,5.76a7.11,7.11,0,0,0-1.9.61"/></g></g></g><polygon class="cls-21" points="38.85 48.76 28.27 42.99 30.85 42.63 41.44 48.39 38.85 48.76"/><polygon points="54.42 26.46 43.83 20.7 43.84 13.49 54.43 19.25 54.42 26.46"/><polygon points="38.85 48.76 28.27 42.99 28.27 41.44 38.86 47.2 38.85 48.76"/><polygon class="cls-16" points="45.11 38.17 34.52 32.41 34.53 28.02 45.12 33.78 45.11 38.17"/><polygon class="cls-28" points="52.17 26.77 41.58 21.01 41.59 14.57 52.18 20.33 52.17 26.77"/><g class="cls-2"><g class="cls-29"><g class="cls-2"><path class="cls-5" d="M36.1,49.14,25.51,43.38A4.53,4.53,0,0,0,26.83,43l10.59,5.76a4.63,4.63,0,0,1-1.32.37"/><path class="cls-6" d="M37.42,48.77,26.83,43a4.15,4.15,0,0,0,.47-.27L37.89,48.5a4.15,4.15,0,0,1-.47.27"/><path class="cls-7" d="M37.89,48.5,27.3,42.74l.28-.22,10.59,5.76-.28.22"/><path class="cls-8" d="M38.17,48.28,27.58,42.52l.21-.22,10.59,5.76-.21.22"/><path class="cls-9" d="M38.38,48.06,27.79,42.3a1.57,1.57,0,0,0,.17-.21l10.59,5.76a1.57,1.57,0,0,1-.17.21"/><path class="cls-10" d="M38.55,47.85,28,42.09a1.18,1.18,0,0,0,.14-.23l10.59,5.76a2,2,0,0,1-.14.23"/><path class="cls-11" d="M38.69,47.62,28.1,41.86a1.85,1.85,0,0,0,.12-.26l10.59,5.77a2.59,2.59,0,0,1-.12.25"/><path class="cls-12" d="M38.81,47.37,28.22,41.6c0-.08,0-.14.05-.16L38.86,47.2s0,.08,0,.17"/></g></g></g><g class="cls-2"><g class="cls-30"><g class="cls-2"><path d="M54.43,19.25,43.84,13.49a2.59,2.59,0,0,0-1.21-1.84l10.59,5.76a2.62,2.62,0,0,1,1.21,1.84"/></g></g></g><g class="cls-2"><g class="cls-31"><g class="cls-2"><path class="cls-32" d="M52.18,20.33,41.59,14.57a1,1,0,0,0-.48-1L51.7,19.33a1,1,0,0,1,.48,1"/></g></g></g><polygon points="42.63 48.22 32.05 42.46 32.07 28.36 42.66 34.13 42.63 48.22"/><polygon class="cls-16" points="41.44 48.39 30.85 42.63 30.87 32.28 41.45 38.05 41.44 48.39"/><polygon points="42.66 34.13 32.07 28.36 34.53 28.02 45.12 33.78 42.66 34.13"/><polygon class="cls-21" points="21.63 32.86 11.04 27.1 42.39 22.69 52.98 28.45 21.63 32.86"/><polygon points="46.5 27.57 35.92 21.81 38.34 21.47 48.93 27.23 46.5 27.57"/><g class="cls-2"><g class="cls-33"><g class="cls-2"><path d="M51,19.18,40.38,13.42a2,2,0,0,1,.46.05l10.59,5.76a2,2,0,0,0-.46-.05"/><path d="M51.43,19.23,40.84,13.47l.23.08,10.59,5.76-.23-.08"/><path d="M51.66,19.31,41.07,13.55l0,0L51.7,19.33l0,0"/></g></g></g><g class="cls-2"><g class="cls-34"><g class="cls-2"><path d="M36,46.71,25.4,41l.05,0L36,46.74l0,0"/><path d="M36,46.74,25.45,41a1.25,1.25,0,0,0,.25.09l10.59,5.76a1.06,1.06,0,0,1-.25-.09"/><path d="M36.29,46.83,25.7,41.07a1.26,1.26,0,0,0,.51,0,2,2,0,0,0,.54-.17l10.59,5.76a2,2,0,0,1-.54.17,1.26,1.26,0,0,1-.51,0"/><path d="M37.34,46.69,26.75,40.93a1.9,1.9,0,0,0,.39-.23l10.59,5.76a1.9,1.9,0,0,1-.39.23"/><path d="M37.73,46.46,27.14,40.7a4,4,0,0,0,.39-.3l10.58,5.76a3,3,0,0,1-.38.3"/><path d="M38.11,46.16,27.53,40.4a4.75,4.75,0,0,0,.39-.4l10.59,5.76a5,5,0,0,1-.4.4"/><path d="M38.51,45.76,27.92,40c.17-.2.28-.34.29-.36L38.8,45.4s-.12.16-.29.36"/></g></g></g><g class="cls-2"><g class="cls-35"><g class="cls-2"><path class="cls-7" d="M34.08,48.85,23.49,43.09l.1,0L34.17,48.9l-.09,0"/><path class="cls-6" d="M34.17,48.9,23.59,43.14a3,3,0,0,0,.51.19l10.59,5.76a3.52,3.52,0,0,1-.52-.19"/><path class="cls-5" d="M34.69,49.09,24.1,43.33a3.6,3.6,0,0,0,1.41.05L36.1,49.14a3.6,3.6,0,0,1-1.41,0"/></g></g></g><g class="cls-2"><g class="cls-36"><g class="cls-2"><path class="cls-12" d="M36,46.71,25.4,41a2.1,2.1,0,0,1-.78-.81L35.21,45.9a2,2,0,0,0,.78.81"/></g></g></g><polygon points="38.8 45.4 28.21 39.64 28.22 32.66 38.81 38.42 38.8 45.4"/><polygon points="38.81 38.42 28.22 32.66 30.87 32.28 41.45 38.05 38.81 38.42"/><g class="cls-2"><g class="cls-37"><g class="cls-2"><path d="M34.08,48.85,23.49,43.09a3.16,3.16,0,0,1-1.45-2l10.59,5.76a3.16,3.16,0,0,0,1.45,2"/></g></g></g><polygon class="cls-16" points="35.2 45.9 24.62 40.14 24.63 33.16 35.22 38.92 35.2 45.9"/><polygon class="cls-21" points="28.9 49.83 18.32 44.07 20.59 43.75 31.18 49.51 28.9 49.83"/><polygon points="32.64 39.28 22.05 33.52 24.63 33.16 35.22 38.92 32.64 39.28"/><path d="M41.46,38.05l0,10.34-2.59.36V47.2c0,.08-.36,1.6-2.76,1.94a2.93,2.93,0,0,1-3.47-2.29V39.28l2.58-.36v7a1.58,1.58,0,0,0,1.59,1,3.71,3.71,0,0,0,2-1.46v-7Z"/><polygon points="32.63 46.85 22.04 41.09 22.05 33.52 32.64 39.28 32.63 46.85"/><polygon class="cls-16" points="31.18 49.51 20.59 43.75 20.61 35.73 31.2 41.49 31.18 49.51"/><polygon points="28.9 49.83 18.32 44.07 18.33 37 28.92 42.76 28.9 49.83"/><g class="cls-2"><g class="cls-38"><g class="cls-2"><path class="cls-12" d="M31.2,41.49,20.61,35.73a3.24,3.24,0,0,0-1.38-1.53L29.82,40a3.31,3.31,0,0,1,1.38,1.53"/></g></g></g><g class="cls-2"><g class="cls-39"><g class="cls-2"><path d="M20.81,55.83,10.22,50.07l0,0,10.58,5.76,0,0"/><path d="M20.85,55.86,10.27,50.1l.22.08,10.59,5.76-.23-.08"/><path d="M21.08,55.94,10.49,50.18a1.44,1.44,0,0,0,.51,0L21.59,56a1.44,1.44,0,0,1-.51,0"/></g></g></g><g class="cls-2"><g class="cls-40"><g class="cls-2"><path d="M28.92,42.76,18.33,37a2.73,2.73,0,0,0-.85-.78L28.07,42a2.73,2.73,0,0,1,.85.78"/></g></g></g><polygon class="cls-21" points="22.67 50.71 12.09 44.95 14.56 44.6 25.15 50.36 22.67 50.71"/><g class="cls-2"><g class="cls-41"><g class="cls-2"><path class="cls-12" d="M20.81,55.83,10.22,50.07a1.31,1.31,0,0,1-.66-1.21l10.58,5.76a1.33,1.33,0,0,0,.67,1.21"/></g></g></g><g class="cls-2"><g class="cls-42"><g class="cls-2"><path class="cls-10" d="M25.17,43.29,14.58,37.53l.07-.12,10.59,5.76-.07.12"/><path class="cls-9" d="M25.24,43.17,14.65,37.41c.07-.09.18-.23.32-.39l10.59,5.76c-.14.16-.25.3-.32.39"/><path class="cls-8" d="M25.56,42.78,15,37a2.61,2.61,0,0,1,.33-.34l10.59,5.76a2.61,2.61,0,0,0-.33.34"/><path class="cls-7" d="M25.89,42.44,15.3,36.68a2.91,2.91,0,0,1,.33-.26l10.59,5.76a2.91,2.91,0,0,0-.33.26"/><path class="cls-6" d="M26.22,42.18,15.63,36.42l.36-.21L26.58,42a2.6,2.6,0,0,0-.36.21"/><path class="cls-5" d="M26.58,42,16,36.21a2,2,0,0,1,.54-.17,1.63,1.63,0,0,1,.58,0L27.7,41.83a1.63,1.63,0,0,0-.58,0,2,2,0,0,0-.54.17"/><path class="cls-6" d="M27.7,41.83,17.11,36.07l.3.12L28,42a1.88,1.88,0,0,0-.3-.12"/><path class="cls-7" d="M28,42,17.41,36.19l.07,0L28.07,42,28,42"/></g></g></g><polygon class="cls-16" points="25.15 50.36 14.56 44.6 14.58 37.53 25.16 43.29 25.15 50.36"/><g class="cls-2"><g class="cls-43"><g class="cls-2"><path d="M25.17,40.91,14.58,35.15l.18-.13,10.59,5.76-.18.13"/><path d="M25.35,40.78,14.76,35a8.92,8.92,0,0,1,1.18-.69l10.59,5.76a8.92,8.92,0,0,0-1.18.69"/><path d="M26.53,40.09,15.94,34.33a4.61,4.61,0,0,1,1.4-.43A3.24,3.24,0,0,1,18.6,34l10.59,5.76a3.24,3.24,0,0,0-1.26-.05,4.61,4.61,0,0,0-1.4.43"/><path d="M29.19,39.71,18.6,34a2.77,2.77,0,0,1,.53.2l10.59,5.76a2.77,2.77,0,0,0-.53-.2"/><path d="M29.72,39.91,19.13,34.15l.1.05L29.82,40l-.1-.05"/></g></g></g><polygon class="cls-16" points="25.17 40.91 14.58 35.15 14.59 30.47 25.18 36.23 25.17 40.91"/><path d="M25.18,36.23v4.68a6.25,6.25,0,0,1,2.76-1.25,3,3,0,0,1,3.27,1.83l0,8-2.28.32,0-7.07a1.91,1.91,0,0,0-1.8-1,3.33,3.33,0,0,0-1.95,1.49l0,7.07-2.48.35,0-14.13Z"/><polygon points="22.7 36.58 12.11 30.82 14.59 30.47 25.18 36.23 22.7 36.58"/><polygon points="22.67 50.71 12.09 44.95 12.11 30.82 22.7 36.58 22.67 50.71"/><path class="cls-26" d="M53,28.45a1.27,1.27,0,0,1,1.43,1.35l0,20a1.77,1.77,0,0,1-1.44,1.75L21.59,56a1.28,1.28,0,0,1-1.45-1.35l0-20a1.79,1.79,0,0,1,1.45-1.75ZM48,47.46c2.69-.37,3.84-2.53,3.84-5.71,0-2.46-.81-5.22-3.7-4.82a8.53,8.53,0,0,0-3.06,1.24V33.78l-2.46.35,0,14.09,2.46-.34v-1s.24,1,2.94.62m-16.85,2,0-8a3,3,0,0,0-3.27-1.83,6.25,6.25,0,0,0-2.76,1.25V36.23l-2.48.35,0,14.13,2.48-.35,0-7.07a3.33,3.33,0,0,1,1.95-1.49,1.91,1.91,0,0,1,1.8,1l0,7.07,2.28-.32m10.26-1.12,0-10.34-2.65.37v7a3.71,3.71,0,0,1-2,1.46,1.58,1.58,0,0,1-1.59-1v-7l-2.58.36v7.57a2.93,2.93,0,0,0,3.47,2.29c2.4-.34,2.74-1.86,2.76-1.94v1.55l2.59-.36"/><g class="cls-2"><g class="cls-44"><g class="cls-2"><path d="M50.32,19.33,39.73,13.57a1.33,1.33,0,0,1,.44-.14h.21L51,19.18h-.21a1.26,1.26,0,0,0-.44.14"/></g></g></g><g class="cls-2"><g class="cls-45"><g class="cls-2"><path class="cls-46" d="M51.47,17.16,40.88,11.4a3.05,3.05,0,0,1,1.23,0L52.7,17.21a3.05,3.05,0,0,0-1.23-.05"/><path class="cls-47" d="M52.7,17.21,42.11,11.45a1.91,1.91,0,0,1,.44.16l10.59,5.76a1.91,1.91,0,0,0-.44-.16"/><path class="cls-48" d="M53.14,17.37,42.55,11.61l.08,0,10.59,5.76-.08,0"/></g></g></g><polygon points="48.93 27.23 38.34 21.47 38.35 15.25 48.94 21.01 48.93 27.23"/><g class="cls-2"><g class="cls-49"><g class="cls-2"><path d="M48.94,21,38.35,15.25a2.83,2.83,0,0,1,.22-.46l10.59,5.76a2.83,2.83,0,0,0-.22.46"/><path d="M49.16,20.55,38.57,14.79a2.49,2.49,0,0,1,.24-.4L49.4,20.15a2.49,2.49,0,0,0-.24.4"/><path d="M49.4,20.15,38.81,14.39a3,3,0,0,1,.22-.28l10.59,5.76a3,3,0,0,0-.22.28"/><path d="M49.62,19.87,39,14.11l.22-.22,10.58,5.76-.21.22"/><path d="M49.83,19.65,39.25,13.89a1.73,1.73,0,0,1,.21-.17l10.59,5.76-.22.17"/><path d="M50.05,19.48,39.46,13.72a1.43,1.43,0,0,1,.27-.15l10.59,5.76a1.43,1.43,0,0,0-.27.15"/><path d="M50.32,19.33,39.73,13.57a1.33,1.33,0,0,1,.44-.14h.21L51,19.18h-.21a1.26,1.26,0,0,0-.44.14"/></g></g></g><g class="cls-2"><g class="cls-50"><g class="cls-2"><polyline class="cls-32" points="48.95 18.59 38.36 12.83 38.36 12.82 48.95 18.59 48.95 18.59"/><path class="cls-51" d="M49,18.59,38.36,12.83a.42.42,0,0,1,0-.12L49,18.47a.42.42,0,0,0,0,.12"/><path class="cls-52" d="M49,18.47,38.41,12.71a.8.8,0,0,1,.09-.14l10.59,5.76a.8.8,0,0,0-.09.14"/><path class="cls-53" d="M49.09,18.33,38.5,12.57l.12-.16,10.59,5.76a1.33,1.33,0,0,0-.12.16"/><path class="cls-54" d="M49.21,18.17,38.62,12.41l.17-.17L49.38,18c-.07.06-.12.12-.17.17"/><path class="cls-48" d="M49.38,18,38.79,12.24l.25-.19,10.59,5.76a1.81,1.81,0,0,0-.25.19"/><path class="cls-47" d="M49.63,17.81,39,12.05a4.27,4.27,0,0,1,.44-.26l10.59,5.76a3.41,3.41,0,0,0-.44.26"/><path class="cls-46" d="M50.07,17.55,39.48,11.79a5.3,5.3,0,0,1,1.4-.39l10.59,5.76a5.3,5.3,0,0,0-1.4.39"/></g></g></g><polygon points="48.95 18.59 38.36 12.83 38.36 11.76 48.95 17.52 48.95 18.59"/><polygon class="cls-28" points="46.5 27.57 35.92 21.81 35.93 12.1 46.52 17.86 46.5 27.57"/><polygon class="cls-55" points="46.52 17.86 35.93 12.1 38.36 11.76 48.95 17.52 46.52 17.86"/><path class="cls-56" d="M51.47,17.16a2.44,2.44,0,0,1,3,2.09v7.21l-2.25.31V20.33c0-.06.14-1.15-1.21-1.15h-.21c-1.21.17-1.79,1.74-1.82,1.82v6.22l-2.43.34,0-9.71L49,17.52v1.07C49,18.53,49.36,17.46,51.47,17.16Z"/><polygon points="44.6 20.64 34.01 14.87 34.79 13.01 45.38 18.77 44.6 20.64"/><polygon points="39.73 28.52 29.14 22.76 31.48 22.43 42.07 28.19 39.73 28.52"/><g class="cls-2"><g class="cls-57"><g class="cls-2"><path d="M45.38,18.77,34.79,13a1,1,0,0,0-.3-.22l10.58,5.76a1.07,1.07,0,0,1,.31.22"/></g></g></g><polygon points="42.07 28.19 31.48 22.43 31.49 16.34 42.08 22.11 42.07 28.19"/><g class="cls-2"><g class="cls-58"><g class="cls-2"><path d="M42.08,22.1,31.49,16.34s0-.2.12-.43L42.2,21.67a2.77,2.77,0,0,0-.12.43"/><path d="M42.2,21.67,31.61,15.91a2.52,2.52,0,0,1,.16-.34l10.59,5.76a2.52,2.52,0,0,0-.16.34"/><path d="M42.36,21.33,31.77,15.57l.13-.23L42.49,21.1l-.13.23"/><path d="M42.49,21.1,31.9,15.34l.14-.16,10.58,5.76-.13.16"/><path d="M42.62,20.94,32,15.18a.86.86,0,0,1,.13-.14L42.76,20.8l-.14.14"/><path d="M42.76,20.8,32.17,15l.15-.12,10.59,5.76-.15.12"/><path d="M42.91,20.68,32.32,14.92l.2-.12,10.59,5.76-.2.12"/><path d="M43.11,20.56,32.52,14.8a1.63,1.63,0,0,1,1.09-.06L44.2,20.5a1.68,1.68,0,0,0-.69-.05,1.56,1.56,0,0,0-.4.11"/><path d="M44.2,20.5,33.61,14.74a2.32,2.32,0,0,1,.4.13L44.6,20.63a3.7,3.7,0,0,0-.4-.13"/></g></g></g><g class="cls-2"><g class="cls-59"><g class="cls-2"><path class="cls-48" d="M42.09,19.23,31.5,13.47c.15-.13.3-.25.44-.35l10.59,5.76a4.49,4.49,0,0,0-.44.35"/><path class="cls-47" d="M42.53,18.88,31.94,13.12a4.26,4.26,0,0,1,.53-.31l10.59,5.76a4.26,4.26,0,0,0-.53.31"/><path class="cls-46" d="M43.06,18.57,32.47,12.81a2.5,2.5,0,0,1,.76-.23,2,2,0,0,1,.83,0l10.59,5.76a2,2,0,0,0-.83,0,2.5,2.5,0,0,0-.76.23"/><path class="cls-47" d="M44.65,18.38,34.06,12.62a2.12,2.12,0,0,1,.36.13L45,18.51a2.12,2.12,0,0,0-.36-.13"/><path class="cls-48" d="M45,18.51,34.42,12.75l.07,0,10.58,5.76-.06,0"/></g></g></g><polygon points="42.09 19.23 31.5 13.47 31.5 12.72 42.09 18.48 42.09 19.23"/><polygon class="cls-55" points="39.75 18.81 29.16 13.05 31.5 12.72 42.09 18.48 39.75 18.81"/><polygon class="cls-28" points="39.73 28.52 29.14 22.76 29.16 13.05 39.75 18.81 39.73 28.52"/><g class="cls-2"><g class="cls-60"><g class="cls-2"><path d="M31.88,28.88,21.29,23.12l.14.07L32,29l-.14-.07"/><path d="M32,29,21.43,23.19a3.34,3.34,0,0,0,.71.26l10.59,5.76A3.34,3.34,0,0,1,32,29"/><path d="M32.73,29.21,22.14,23.45a4,4,0,0,0,1.55.08,4.62,4.62,0,0,0,1.31-.4l10.59,5.76a4.72,4.72,0,0,1-1.31.4,4,4,0,0,1-1.55-.08"/><path d="M35.59,28.89,25,23.13a5.3,5.3,0,0,0,.73-.42l10.59,5.76a4.44,4.44,0,0,1-.73.42"/><path d="M36.32,28.47,25.73,22.71a4.43,4.43,0,0,0,.54-.43L36.86,28a4.43,4.43,0,0,1-.54.43"/><path d="M36.86,28,26.27,22.28a5,5,0,0,0,.46-.46l10.59,5.76a5,5,0,0,1-.46.46"/><path d="M37.32,27.58,26.73,21.82a5.08,5.08,0,0,0,.41-.51l10.59,5.76c-.13.18-.27.35-.41.51"/><path d="M37.73,27.07,27.14,21.31a6,6,0,0,0,.36-.6l10.59,5.76a6,6,0,0,1-.36.6"/><path d="M38.09,26.47,27.5,20.71a4.75,4.75,0,0,0,.34-.76l10.59,5.76a4.75,4.75,0,0,1-.34.76"/><path d="M38.43,25.71,27.84,20A5.35,5.35,0,0,0,28.19,18a4.2,4.2,0,0,0-2.08-3.81L36.69,20a4.2,4.2,0,0,1,2.09,3.81,5.35,5.35,0,0,1-.35,1.91"/></g></g></g><g class="cls-2"><g class="cls-61"><g class="cls-2"><path class="cls-48" d="M33.28,26.91,22.7,21.15l.06,0,10.58,5.76-.06,0"/><path class="cls-47" d="M33.34,26.94,22.76,21.18a1.08,1.08,0,0,0,.3.11l10.59,5.76a1.15,1.15,0,0,1-.31-.11"/><path class="cls-46" d="M33.65,27.05,23.06,21.29a1.47,1.47,0,0,0,.63,0l10.59,5.76a1.47,1.47,0,0,1-.63,0"/></g></g></g><g class="cls-2"><g class="cls-62"><g class="cls-2"><path class="cls-46" d="M34.28,27.09,23.69,21.33a1.91,1.91,0,0,0,.53-.16l10.59,5.76a2,2,0,0,1-.53.16"/><path class="cls-47" d="M34.81,26.93,24.22,21.17a1.92,1.92,0,0,0,.31-.18l10.59,5.76a1.92,1.92,0,0,1-.31.18"/><path class="cls-48" d="M35.12,26.75,24.53,21a2.23,2.23,0,0,0,.24-.19l10.59,5.76-.24.19"/><path class="cls-54" d="M35.36,26.56,24.77,20.8a2.28,2.28,0,0,0,.22-.22l10.59,5.76a2.28,2.28,0,0,1-.22.22"/><path class="cls-53" d="M35.58,26.34,25,20.58a2.56,2.56,0,0,0,.2-.26l10.59,5.76a2.56,2.56,0,0,1-.2.26"/><path class="cls-52" d="M35.78,26.08,25.19,20.32a3.28,3.28,0,0,0,.2-.31L36,25.77a3.28,3.28,0,0,1-.2.31"/><path class="cls-51" d="M36,25.77,25.39,20a3.43,3.43,0,0,0,.19-.44l10.59,5.76a3.43,3.43,0,0,1-.19.44"/><path class="cls-32" d="M36.17,25.33,25.58,19.57a3.65,3.65,0,0,0,.22-1.2,2.41,2.41,0,0,0-1.1-2.17L35.29,22a2.38,2.38,0,0,1,1.09,2.17,3.4,3.4,0,0,1-.21,1.2"/></g></g></g><g class="cls-2"><g class="cls-63"><g class="cls-2"><path class="cls-46" d="M34.29,19.58,23.71,13.82a3.81,3.81,0,0,1,1.55.08l10.59,5.76a3.86,3.86,0,0,0-1.56-.08"/><path class="cls-47" d="M35.85,19.66,25.26,13.9a3.55,3.55,0,0,1,.71.26l10.59,5.76a3.55,3.55,0,0,0-.71-.26"/><path class="cls-48" d="M36.56,19.92,26,14.16l.14.07L36.69,20l-.13-.07"/></g></g></g><g class="cls-2"><g class="cls-64"><g class="cls-2"><path d="M33.28,26.91,22.7,21.15A2.41,2.41,0,0,1,21.6,19a3.33,3.33,0,0,1,.21-1.18L32.4,23.54a3.33,3.33,0,0,0-.21,1.18,2.4,2.4,0,0,0,1.09,2.19"/><path d="M32.4,23.54,21.81,17.78a3.49,3.49,0,0,1,.2-.44L32.59,23.1a3.43,3.43,0,0,0-.19.44"/><path d="M32.59,23.1,22,17.34A3.37,3.37,0,0,1,22.2,17l10.59,5.76a3.45,3.45,0,0,0-.2.32"/><path d="M32.79,22.78,22.2,17a2.43,2.43,0,0,1,.2-.25L33,22.53a2.43,2.43,0,0,0-.2.25"/><path d="M33,22.53,22.4,16.77a2.28,2.28,0,0,1,.22-.22l10.59,5.76a2.28,2.28,0,0,0-.22.22"/><path d="M33.21,22.31,22.62,16.55a2,2,0,0,1,.24-.19l10.59,5.76a2,2,0,0,0-.24.19"/><path d="M33.45,22.12,22.86,16.36a1.92,1.92,0,0,1,.31-.18l10.59,5.76a1.92,1.92,0,0,0-.31.18"/><path d="M33.76,21.94,23.17,16.18A1.7,1.7,0,0,1,23.7,16a1.65,1.65,0,0,1,.63,0l10.59,5.76a1.65,1.65,0,0,0-.63,0,1.7,1.7,0,0,0-.53.16"/><path d="M34.92,21.81,24.33,16.05l.31.11,10.59,5.76-.31-.11"/><path d="M35.23,21.92,24.64,16.16l.06,0L35.29,22l-.06,0"/></g></g></g><path d="M34.28,27.09c-1.16.16-2.1-.9-2.09-2.37a2.87,2.87,0,0,1,2.1-2.94c1.16-.17,2.1.89,2.09,2.35A2.89,2.89,0,0,1,34.28,27.09Z"/><path class="cls-56" d="M34.29,19.58a4,4,0,0,1,4.49,4.22,5.58,5.58,0,0,1-4.5,5.49,4,4,0,0,1-4.49-4.23A5.6,5.6,0,0,1,34.29,19.58Zm0,7.51a2.89,2.89,0,0,0,2.1-3c0-1.46-.93-2.52-2.09-2.35a2.87,2.87,0,0,0-2.1,2.94c0,1.47.93,2.53,2.09,2.37"/><g class="cls-2"><g class="cls-65"><g class="cls-2"><path class="cls-32" d="M31.88,28.88,21.29,23.12A4.23,4.23,0,0,1,19.2,19.3a5.52,5.52,0,0,1,.35-1.9l10.59,5.76a5.29,5.29,0,0,0-.35,1.9,4.23,4.23,0,0,0,2.09,3.82"/><path class="cls-51" d="M30.14,23.16,19.55,17.4a4.75,4.75,0,0,1,.34-.76L30.48,22.4a4.75,4.75,0,0,0-.34.76"/><path class="cls-52" d="M30.48,22.4,19.89,16.64a4.6,4.6,0,0,1,.37-.6L30.84,21.8a6,6,0,0,0-.36.6"/><path class="cls-53" d="M30.84,21.8,20.26,16a5,5,0,0,1,.4-.51l10.59,5.76c-.14.16-.28.33-.41.51"/><path class="cls-54" d="M31.25,21.29,20.66,15.53c.15-.17.3-.32.46-.47l10.59,5.76a5.1,5.1,0,0,0-.46.47"/><path class="cls-48" d="M31.71,20.82,21.12,15.06a5.79,5.79,0,0,1,.55-.43l10.58,5.76a5.66,5.66,0,0,0-.54.43"/><path class="cls-47" d="M32.25,20.39,21.67,14.63a4.77,4.77,0,0,1,.73-.42L33,20a6,6,0,0,0-.73.42"/><path class="cls-46" d="M33,20,22.4,14.21a4.51,4.51,0,0,1,1.31-.39l10.58,5.76A4.7,4.7,0,0,0,33,20"/></g></g></g><g class="cls-2"><g class="cls-66"><g class="cls-2"><path d="M26.67,25.37,16.08,19.61l.29-.11L27,25.26a2.24,2.24,0,0,1-.28.11"/><path d="M27,25.26,16.37,19.5c.13-.07.3-.16.48-.28L27.44,25a3.86,3.86,0,0,1-.49.28"/><path d="M27.44,25,16.85,19.22a4.22,4.22,0,0,0,.37-.29L27.8,24.69a3.05,3.05,0,0,1-.36.29"/><path d="M27.8,24.69,17.22,18.93a3,3,0,0,0,.3-.31L28.1,24.38a2.22,2.22,0,0,1-.3.31"/><path d="M28.1,24.38,17.52,18.62a2.34,2.34,0,0,0,.26-.34L28.37,24a1.84,1.84,0,0,1-.27.34"/><path d="M28.37,24,17.78,18.28a2.7,2.7,0,0,0,.25-.4l10.59,5.76a3.89,3.89,0,0,1-.25.4"/><path d="M28.62,23.64,18,17.88a4.27,4.27,0,0,0,.26-.57l10.59,5.76a4.27,4.27,0,0,1-.26.57"/><path d="M28.88,23.07,18.29,17.31a5.74,5.74,0,0,0,.32-2L29.2,21.07a6,6,0,0,1-.32,2"/></g></g></g><polygon class="cls-16" points="20.14 54.62 9.56 48.86 9.59 28.85 20.18 34.61 20.14 54.62"/><g class="cls-2"><g class="cls-67"><g class="cls-2"><path class="cls-12" d="M20.18,34.61,9.59,28.85a1.73,1.73,0,0,1,.11-.6L20.29,34a1.73,1.73,0,0,0-.11.6"/><path class="cls-11" d="M20.29,34,9.7,28.25A1.89,1.89,0,0,1,9.81,28L20.4,33.76a1.89,1.89,0,0,0-.11.25"/><path class="cls-10" d="M20.4,33.76,9.81,28l.12-.19,10.59,5.76-.12.19"/><path class="cls-9" d="M20.52,33.57,9.93,27.81a1.83,1.83,0,0,1,.13-.16l10.59,5.76a1.83,1.83,0,0,0-.13.16"/><path class="cls-8" d="M20.65,33.41,10.06,27.65a1.06,1.06,0,0,1,.15-.15L20.8,33.26l-.15.15"/><path class="cls-7" d="M20.8,33.26,10.21,27.5l.17-.14L21,33.12l-.17.14"/><path class="cls-6" d="M21,33.12,10.38,27.36l.24-.14L21.21,33l-.24.14"/><path class="cls-5" d="M21.21,33,10.62,27.22A1.45,1.45,0,0,1,11,27.1l10.59,5.76a1.45,1.45,0,0,0-.42.12"/></g></g></g><g class="cls-2"><g class="cls-68"><g class="cls-2"><path class="cls-48" d="M25.91,23.26,15.32,17.5l.1-.08L26,23.18l-.1.08"/><path class="cls-54" d="M26,23.18,15.42,17.42a3,3,0,0,0,.24-.25l10.59,5.76a3,3,0,0,1-.24.25"/><path class="cls-53" d="M26.25,22.93,15.66,17.17a3.2,3.2,0,0,0,.22-.27l10.59,5.76-.22.27"/><path class="cls-52" d="M26.47,22.66,15.88,16.9a2.61,2.61,0,0,0,.17-.28l10.59,5.76-.17.28"/><path class="cls-51" d="M26.64,22.38,16.05,16.62a2.37,2.37,0,0,0,.14-.32l10.59,5.76a2.37,2.37,0,0,1-.14.32"/><path class="cls-32" d="M26.78,22.06,16.19,16.3a1.94,1.94,0,0,0,.13-.7l10.59,5.76a1.94,1.94,0,0,1-.13.7"/></g></g></g><g class="cls-2"><g class="cls-69"><g class="cls-2"><path d="M29.2,21.07,18.61,15.31c0-2.09-.8-3-1.49-3.33l10.59,5.76c.68.37,1.5,1.24,1.49,3.33"/></g></g></g><polygon points="20.19 31.27 9.6 25.51 11.94 25.18 22.53 30.94 20.19 31.27"/><g class="cls-2"><g class="cls-70"><g class="cls-2"><path class="cls-32" d="M26.91,21.36,16.32,15.6a1.78,1.78,0,0,0-1-1.53l10.59,5.76a1.78,1.78,0,0,1,1,1.53"/></g></g></g><polygon points="22.54 25.95 11.95 20.19 16.08 19.61 26.67 25.37 22.54 25.95"/><polygon points="22.53 30.94 11.94 25.18 11.95 20.19 22.54 25.95 22.53 30.94"/><g class="cls-2"><g class="cls-71"><g class="cls-2"><path d="M25.78,19.76,15.19,14l.07,0,10.59,5.76-.07,0"/><path d="M25.85,19.79,15.26,14l.07,0,10.59,5.76-.07,0"/></g></g></g><g class="cls-2"><g class="cls-72"><g class="cls-2"><path class="cls-46" d="M26.81,17.47,16.22,11.71a1.33,1.33,0,0,1,.37.06l10.59,5.76a1.33,1.33,0,0,0-.37-.06"/><path class="cls-47" d="M27.18,17.53,16.59,11.77a2.25,2.25,0,0,1,.45.16l10.58,5.76a2,2,0,0,0-.44-.16"/><path class="cls-48" d="M27.62,17.69,17,11.93l.08.05,10.59,5.76-.09,0"/></g></g></g><polygon class="cls-55" points="22.32 23.77 11.73 18.01 15.32 17.5 25.91 23.26 22.32 23.77"/><polygon points="22.32 23.77 11.73 18.01 11.73 14.49 22.32 20.25 22.32 23.77"/><polygon points="22.32 20.25 11.73 14.49 15.19 14 25.78 19.76 22.32 20.25"/><path class="cls-56" d="M26.81,17.47c.12,0,2.4.11,2.39,3.6s-2.4,4.26-2.53,4.3L22.54,26v5l-2.34.33,0-12.88Zm-.9,5.79a2.66,2.66,0,0,0,1-1.9,1.86,1.86,0,0,0-1.13-1.6l-3.46.49v3.52l3.6-.51"/><path d="M26.91,21.36a2.66,2.66,0,0,1-1,1.9l-3.6.51V20.25l3.46-.49A1.86,1.86,0,0,1,26.91,21.36Z"/><polygon class="cls-28" points="20.19 31.27 9.6 25.51 9.62 12.63 20.21 18.39 20.19 31.27"/><polygon class="cls-55" points="20.21 18.39 9.62 12.63 16.22 11.71 26.81 17.46 20.21 18.39"/><path d="M53.47,5.83c4.79-.67,8.67,3,8.66,8.16l-.06,34.8c0,5.18-3.9,9.92-8.7,10.6L21.12,63.92c-4.8.67-8.67-3-8.66-8.15L12.52,21c0-5.18,3.9-9.92,8.7-10.6Zm.9,44,0-20A1.27,1.27,0,0,0,53,28.45L21.63,32.86a1.79,1.79,0,0,0-1.45,1.75l0,20A1.28,1.28,0,0,0,21.59,56l31.34-4.41a1.77,1.77,0,0,0,1.44-1.75M20.21,18.39l0,12.88,2.34-.33V26l4.13-.58c.13,0,2.53-.8,2.53-4.3s-2.27-3.6-2.39-3.6l-6.6.92m14.08,1.19a5.6,5.6,0,0,0-4.5,5.48,4,4,0,0,0,4.49,4.23,5.58,5.58,0,0,0,4.5-5.49,4,4,0,0,0-4.49-4.22m20.13,6.88V19.25a2.44,2.44,0,0,0-3-2.09c-2.11.3-2.5,1.37-2.52,1.43V17.52l-2.43.34,0,9.71,2.43-.34V21c0-.08.61-1.65,1.82-1.82H51c1.35,0,1.22,1.09,1.21,1.15v6.44l2.25-.31M39.75,18.81l0,9.71,2.34-.33V22.1c0-.07.27-1.49,1.43-1.65a2,2,0,0,1,1.09.18l.78-1.86a1.86,1.86,0,0,0-1.56-.43,3.36,3.36,0,0,0-1.73.89v-.75l-2.34.33"/><path d="M48.17,36.93c2.89-.4,3.71,2.36,3.7,4.82,0,3.18-1.15,5.34-3.84,5.71s-2.93-.57-2.94-.62v1l-2.46.34,0-14.09,2.46-.35v4.39A8.53,8.53,0,0,1,48.17,36.93Zm-.56,8.66c1.12-.16,2-1.74,2-3.53s-.9-3.1-2-3-2,1.74-2,3.53.91,3.11,2,3"/><path class="cls-56" d="M42.09,18.48v.75a3.36,3.36,0,0,1,1.73-.89,1.86,1.86,0,0,1,1.56.43l-.78,1.86a2,2,0,0,0-1.09-.18c-1.16.16-1.42,1.58-1.43,1.65v6.09l-2.34.33,0-9.71Z"/><path class="cls-73" d="M54.82,5.76a6.92,6.92,0,0,1,1,.1l.18,0a8.65,8.65,0,0,1,.91.23l.15,0a7.58,7.58,0,0,1,1,.45L47.52.87,47.25.73a6.81,6.81,0,0,0-.74-.31l-.15,0L45.88.22,45.45.14l-.17,0a7.18,7.18,0,0,0-1-.1H44a8.79,8.79,0,0,0-1.13.07L10.63,4.6a8.87,8.87,0,0,0-1.16.26L9.18,5a8.94,8.94,0,0,0-1,.39l-.07,0h0l-.2.1-.56.3L7,6l-.35.22-.07.06A8,8,0,0,0,5.69,7L5.63,7a.86.86,0,0,0-.13.14c-.22.2-.42.41-.62.62a1.59,1.59,0,0,1-.13.13S4.69,8,4.65,8c-.21.25-.41.51-.6.77L4,8.89l0,0c-.23.33-.43.67-.62,1L3.26,10l-.17.34a2.44,2.44,0,0,1-.14.28l-.27.64a1.34,1.34,0,0,1-.07.18v0c-.06.16-.1.32-.15.48l-.13.39c0,.19-.09.37-.13.56s-.06.24-.08.37-.06.41-.09.62,0,.21,0,.32c0,.32-.05.64-.05,1L1.87,50a8.52,8.52,0,0,0,2.37,6.12A7.15,7.15,0,0,0,5.9,57.36l10.59,5.76a8.11,8.11,0,0,1-4-7.35L12.52,21c0-.32,0-.64.05-1,0-.11,0-.22,0-.32s.05-.42.09-.62.06-.25.08-.37.08-.37.13-.56.08-.25.13-.38.1-.35.16-.51l.07-.18.27-.64.14-.28c.07-.15.15-.3.23-.45.2-.34.4-.68.63-1l.1-.13c.19-.26.39-.52.6-.76.07-.09.15-.17.23-.26s.4-.42.61-.62.13-.13.2-.18A8,8,0,0,1,17.2,12l.42-.28.27-.18.57-.3.2-.1.09,0a8.94,8.94,0,0,1,1-.39l.29-.09a8.87,8.87,0,0,1,1.16-.26L53.47,5.83a8.68,8.68,0,0,1,1.13-.07Z"/></svg>