<?xml version="1.0" ?><!DOCTYPE svg  PUBLIC '-//W3C//DTD SVG 1.1//EN'  'http://www.w3.org/Graphics/SVG/1.1/DTD/svg11.dtd'><svg enable-background="new 0 0 512 512" height="512px" id="Layer_1" version="1.1" viewBox="0 0 512 512" width="512px" xml:space="preserve" xmlns="http://www.w3.org/2000/svg" xmlns:xlink="http://www.w3.org/1999/xlink"><path d="M492.879,442.732c0,34.171-27.701,61.872-61.873,61.872H81.263c-34.171,0-61.873-27.701-61.873-61.872  V92.987c0-34.171,27.702-61.873,61.873-61.873h349.743c34.172,0,61.873,27.701,61.873,61.873V442.732z" fill="#8E4A00"/><path d="M492.879,417.988c0,34.172-27.701,61.873-61.873,61.873H81.263c-34.171,0-61.873-27.701-61.873-61.873  V68.243c0-34.171,27.702-61.872,61.873-61.872h349.743c34.172,0,61.873,27.701,61.873,61.872V417.988z" fill="#FE9900"/><path d="M492.879,306.281c-14.361-14.354-46.368-46.398-53.504-53.51c-16.693-16.639-33.306-33.361-50-50  c-16.693-16.639-33.306-33.361-50-50c-4.173-4.16-8.287-8.385-12.506-12.499c-2.041-2.122-4.179-4.153-6.245-6.251  c-1.927-1.957-3.855-3.901-6.007-5.615c-7.959-6.338-17.705-10.208-27.562-12.435c-4.805-1.085-9.698-1.785-14.613-2.104  c-5.11-0.331-10.356-0.417-15.458,0.001c-8.232,0.675-16.43,2.203-24.248,4.897c-7.726,2.661-15.09,6.499-21.384,11.743  c-6.562,5.466-11.769,12.399-15.219,20.21c-1.948,4.412-3.344,9.057-4.266,13.788c-0.44,2.26-0.317,4.387,1.635,5.897  c0.667,0.894,1.602,1.632,2.37,2.437c0.822,0.86,1.688,1.835,2.63,2.563c0.667,0.894,1.602,1.632,2.37,2.437  c0.822,0.86,1.688,1.835,2.63,2.563c0.667,0.894,1.602,1.632,2.37,2.437c0.822,0.86,1.688,1.835,2.63,2.563  c0.667,0.894,1.602,1.632,2.37,2.437c0.822,0.86,1.688,1.835,2.63,2.563c0.667,0.894,1.602,1.632,2.37,2.437  c0.822,0.86,1.688,1.835,2.63,2.563c0.9,1.207,2.213,2.084,3.187,3.225c-7.929,3.271-15.245,8.077-21.075,14.397  c-5.92,6.418-10.118,14.255-12.388,22.675c-2.655,9.846-2.941,20.544-1.009,30.546c1.754,9.085,5.711,17.757,12.179,24.456  c8.025,8.313,16.425,16.269,24.52,24.516c8.255,8.411,16.747,16.589,25,25c3.163,3.224,6.336,6.464,9.588,9.597  c-23.872-0.072-47.731-2.94-70.958-8.449c-22.317-5.291-44.078-13.018-64.653-23.162c-4.973-2.452-9.875-5.046-14.697-7.783  c-1.823-1.035-4.184-3.016-6.408-1.997c-1.756,0.804-1.79,2.913-0.704,4.29c0.686,0.871,1.602,1.603,2.368,2.404  c0.847,0.888,1.736,1.77,2.648,2.592c0.686,0.873,154.664,153.492,156.693,155.115c3.027,2.424,6.118,4.77,9.266,7.035h158.945  c34.172,0,61.873-27.701,61.873-61.872V306.281z" fill="#B76400"/><path d="M284.632,186.884c-7.543,0.596-16.246,1.17-24.947,2.342  c-13.338,1.723-26.676,4.066-37.697,9.277c-21.459,8.732-35.965,27.309-35.965,54.625c0,34.293,22.047,51.696,49.882,51.696  c9.295,0,16.833-1.142,23.78-2.89c11.029-3.492,20.311-9.871,31.326-21.5c6.383,8.73,8.113,12.799,19.146,22.078  c2.902,1.17,5.803,1.17,8.113-0.578c6.959-5.811,19.135-16.262,25.533-22.072c2.891-2.346,2.303-5.814,0.576-8.729  c-6.387-8.129-12.762-15.115-12.762-30.779v-52.301c0-22.094,1.725-42.424-14.502-57.514c-13.34-12.221-34.225-16.861-50.461-16.861  c-2.33,0-4.635,0-6.971,0c-29.578,1.75-60.9,14.518-67.875,51.131c-1.139,4.639,2.347,6.387,4.666,6.982l32.47,4.07  c3.483-0.602,5.213-3.499,5.79-6.414c2.914-12.768,13.35-19.152,24.949-20.324c0.588,0,1.172,0,2.336,0  c6.938,0,14.48,2.916,18.553,8.701c4.621,6.985,4.059,16.286,4.059,24.416V186.884z M284.632,220.601  c0,13.371,0.563,23.818-6.385,35.418c-4.057,8.131-11.016,13.365-18.563,15.115c-1.154,0-2.881,0.596-4.633,0.596  c-12.754,0-20.316-9.873-20.316-24.412c0-18.586,11.031-27.311,24.949-31.379c7.547-1.746,16.252-2.323,24.947-2.323V220.601z   M391.47,358.656c14.18-11.997,20.17-33.772,20.482-45.14v-1.901c0-2.536-0.625-4.411-1.246-5.36  c-2.84-3.463-23.66-6.64-41.605-1.268c-5.039,1.594-9.463,3.791-13.553,6.628c-3.156,2.223-2.523,5.036,0.625,4.737  c3.465-0.641,7.889-0.941,12.928-1.596c11.031-0.919,23.951-1.24,27.1,2.854c4.395,5.352-5.039,28.723-9.154,38.828  C385.806,359.606,388.628,360.876,391.47,358.656z M101.882,313.517c40.645,36.932,94.211,59.036,154.096,59.036  c37.182,0,80.033-10.425,113.123-30.306c4.422-2.548,8.816-5.385,12.906-8.533c5.676-4.09,0.637-10.424-5.035-7.906  c-2.516,0.947-5.355,2.227-7.871,3.168c-36.258,14.217-74.357,20.849-109.666,20.849c-56.1,0-110.287-15.481-154.092-41.046  C101.245,306.581,98.403,310.671,101.882,313.517z" fill="#FFFFFF" id="Amazon_2_"/></svg>