<?xml version="1.0" ?><svg style="enable-background:new 0 0 512 512;" version="1.1" viewBox="0 0 512 512" xml:space="preserve" xmlns="http://www.w3.org/2000/svg" xmlns:xlink="http://www.w3.org/1999/xlink"><style type="text/css">
	.st0{fill:#281B51;}
	.st1{fill:#6441A4;}
	.st2{fill:#3D2577;}
	.st3{fill:#FFFFFF;}
</style><g id="Edges"/><g id="Background_Bottom"><g><path class="st0" d="M492.3,443.1c0,34.2-27.7,61.9-61.9,61.9H80.7c-34.2,0-61.9-27.7-61.9-61.9V93.4c0-34.2,27.7-61.9,61.9-61.9    h349.7c34.2,0,61.9,27.7,61.9,61.9V443.1z"/></g></g><g id="Background"><path class="st1" d="M492.3,418.4c0,34.2-27.7,61.9-61.9,61.9H80.7c-34.2,0-61.9-27.7-61.9-61.9V68.6c0-34.2,27.7-61.9,61.9-61.9   h349.7c34.2,0,61.9,27.7,61.9,61.9V418.4z"/></g><g id="Shadow"><path class="st2" d="M375.2,133.1V133H375h-28.8H157.5l-16.7,41.9l0,170.2h0c0,0,0.4,0.6,0.4,0.6c0,0,0,0,0,0l135,135l154.3-0.3   c34.2,0,61.9-27.7,61.9-61.9l0.8-167.3L375.2,133.1z"/></g><g id="Symbol"><g><path class="st3" d="M308.2,345H258l-25.1,32.6h-33.5l0-32.6h-58.6l0-170.2l16.7-41.9l217.7,0l0,146.8L308.2,345z     M350.1,271.6l0-114.2H174.3l0,155h50.2V345l33.5-32.6h50.2L350.1,271.6z" id="Dialog_2_"/><rect class="st3" height="63.1" id="_x7C__5_" width="18.4" x="296.6" y="193.5"/><rect class="st3" height="63" id="_x7C__4_" width="18.3" x="237.7" y="193.5"/></g></g></svg>