<?xml version="1.0" ?><svg data-name="Layer 1" id="Layer_1" viewBox="0 0 100 100" xmlns="http://www.w3.org/2000/svg"><defs><style>.cls-1{fill:#4d4d4d;}</style></defs><title/><path class="cls-1" d="M41.20618,37.11725a2.22756,2.22756,0,0,0,2.2085-2.258,6.59551,6.59551,0,1,1,9.28436,6.022,16.07417,16.07417,0,0,0-8.20044,8.9964,15.87481,15.87481,0,0,0-.77307,8.10895h6.96362a2.26908,2.26908,0,0,0,2.22772-2.3949,6.60423,6.60423,0,0,1,.41266-2.451A6.7188,6.7188,0,0,1,56.79205,49.36,16.01333,16.01333,0,0,0,52.3866,19.03375a15.29121,15.29121,0,0,0-6.07159.253A16.03487,16.03487,0,0,0,34.156,37.11725h7.05017Z"/><circle class="cls-1" cx="48.14317" cy="66.70949" r="6.1196"/><path class="cls-1" d="M50,4.25A41.54716,41.54716,0,0,0,8.5,45.75v8.5a41.5,41.5,0,0,0,83,0v-8.5A41.54716,41.54716,0,0,0,50,4.25Zm0,6A35.37521,35.37521,0,1,1,14.50317,45.625,35.53831,35.53831,0,0,1,50,10.25Zm0,79.5A35.55545,35.55545,0,0,1,15.48608,62.53479a38.48007,38.48007,0,0,0,69.02783,0A35.55545,35.55545,0,0,1,50,89.75Z"/></svg>