<svg id="Layer_1" data-name="Layer 1" xmlns="http://www.w3.org/2000/svg" viewBox="0 0 64 64"><defs><style>.cls-1{fill:#8e8e8e;}.cls-2{fill:#b4b4b4;}.cls-3{fill:gray;}.cls-4{fill:#dfdfdf;}.cls-5{fill:#80000c;}.cls-6{fill:#97000e;}.cls-7{fill:#95000e;}.cls-8{fill:#b40011;}.cls-9{fill:#df0015;}.cls-10{fill:#231f20;}</style></defs><title>social platforms for adult</title><polygon points="44.27 44.44 33.68 38.68 37.93 38.08 48.52 43.84 44.27 44.44"/><polygon points="48.52 43.84 37.93 38.08 45.06 15.99 55.65 21.75 48.52 43.84"/><polygon class="cls-1" points="46.4 38.46 35.81 32.7 41.01 16.56 51.59 22.32 46.4 38.46"/><polygon class="cls-2" points="51.59 22.32 41.01 16.56 45.06 15.99 55.65 21.75 51.59 22.32"/><polygon points="31.4 46.25 20.81 40.49 25.17 39.88 35.76 45.64 31.4 46.25"/><polygon points="46.4 38.46 35.81 32.7 30.67 18.01 41.26 23.77 46.4 38.46"/><polygon class="cls-3" points="44.27 44.44 33.68 38.68 26.62 18.58 37.21 24.34 44.27 44.44"/><polygon class="cls-2" points="37.21 24.34 26.62 18.58 30.67 18.01 41.26 23.77 37.21 24.34"/><polygon class="cls-4" points="55.65 21.75 48.52 43.84 44.27 44.44 37.21 24.34 41.26 23.77 46.4 38.46 51.59 22.32 55.65 21.75"/><polygon points="35.76 45.64 25.17 39.88 18.8 29.95 29.39 35.71 35.76 45.64"/><polygon class="cls-5" points="31.4 46.25 20.81 40.49 16.77 34.3 27.36 40.06 31.4 46.25"/><polygon points="23.3 47.39 12.71 41.63 16.77 34.3 27.36 40.06 23.3 47.39"/><polygon points="29.39 35.71 18.8 29.95 25.21 18.78 35.8 24.54 29.39 35.71"/><polygon points="18.95 48 8.36 42.24 12.71 41.63 23.3 47.39 18.95 48"/><polygon class="cls-6" points="18.95 48 8.36 42.24 14.76 30.52 25.34 36.28 18.95 48"/><polygon class="cls-7" points="27.38 32.17 16.79 26.41 20.25 19.48 30.84 25.24 27.38 32.17"/><polygon class="cls-8" points="30.84 25.24 20.25 19.48 25.21 18.78 35.8 24.54 30.84 25.24"/><polygon points="27.38 32.17 16.79 26.41 13.36 20.45 23.95 26.21 27.38 32.17"/><polygon class="cls-8" points="18.98 26.9 8.39 21.14 13.36 20.45 23.95 26.21 18.98 26.9"/><polygon class="cls-5" points="25.34 36.28 14.76 30.52 8.39 21.14 18.98 26.9 25.34 36.28"/><polygon class="cls-9" points="35.8 24.54 29.39 35.71 35.76 45.64 31.4 46.25 27.36 40.06 23.3 47.39 18.95 48 25.34 36.28 18.98 26.9 23.95 26.21 27.38 32.17 30.84 25.24 35.8 24.54"/><path class="cls-10" d="M54.83,5.76a7.18,7.18,0,0,1,1,.1l.18,0a7.17,7.17,0,0,1,.91.24l.15,0a7.58,7.58,0,0,1,1,.45L47.53.87,47.26.73a6.81,6.81,0,0,0-.74-.31l-.15,0L45.89.22,45.46.14l-.18,0a7.18,7.18,0,0,0-1-.1H44a8.68,8.68,0,0,0-1.13.07L10.63,4.6a8.87,8.87,0,0,0-1.16.26L9.18,5a8.94,8.94,0,0,0-1,.39l-.07,0h0l-.2.1-.57.3L7,6c-.12.07-.24.14-.35.22l-.07.06A10.64,10.64,0,0,0,5.68,7l0,0-.14.14c-.22.2-.42.41-.62.63l-.13.13L4.65,8c-.22.25-.42.51-.62.78L4,8.9l0,0c-.22.33-.43.67-.62,1l-.07.11-.17.33c0,.1-.09.19-.13.28s-.18.42-.27.63-.05.12-.07.19l0,0c-.06.16-.1.32-.15.48s-.09.25-.13.39l-.12.53-.09.39a6.17,6.17,0,0,0-.08.62,3.06,3.06,0,0,0-.05.32c0,.31-.05.63-.05.95L1.86,50a8.11,8.11,0,0,0,4,7.35l10.59,5.76a8.11,8.11,0,0,1-4-7.35L12.51,21c0-.32,0-.64.05-.95,0-.11,0-.21,0-.31s.05-.43.09-.63l.09-.37a4.9,4.9,0,0,1,.13-.55c0-.13.08-.26.12-.38a4.51,4.51,0,0,1,.17-.52c0-.07.05-.13.07-.19.08-.21.17-.42.27-.62s.09-.19.14-.29.15-.29.23-.44a11.35,11.35,0,0,1,.62-1l.09-.12a9.22,9.22,0,0,1,.62-.78,2.62,2.62,0,0,1,.22-.25c.2-.22.4-.43.62-.63l.19-.18A10.64,10.64,0,0,1,17.2,12l.42-.28.27-.17.57-.31.2-.1.09,0a8.94,8.94,0,0,1,1-.39l.29-.09a7.74,7.74,0,0,1,1.16-.25L53.47,5.83a8.68,8.68,0,0,1,1.13-.07Z"/><path d="M53.47,5.83c4.8-.67,8.68,3,8.67,8.15L62.08,48.8c0,5.17-3.91,9.91-8.71,10.59L21.12,63.92c-4.79.67-8.68-3-8.67-8.15L12.51,21c0-5.17,3.91-9.91,8.71-10.58Zm-4.95,38,7.13-22.09-4,.57L46.4,38.46,41.26,23.77l-4,.57,7.06,20.1,4.25-.6m-12.76,1.8-6.37-9.93L35.8,24.54l-5,.7-3.46,6.93-3.43-6-5,.69,6.36,9.38L19,48l4.35-.61,4.06-7.33,4,6.19,4.36-.61"/></svg>