<?xml version="1.0" ?><svg viewBox="0 0 64 64" xmlns="http://www.w3.org/2000/svg"><defs><style>.cls-1{isolation:isolate;}.cls-2{fill:#fffc40;}.cls-3{fill:#231f20;}.cls-4{fill:#fff;}.cls-5{fill:#ffa431;}</style></defs><title/><g data-name="7-snapchat" id="_7-snapchat"><g class="cls-1"><path class="cls-2" d="M45,36.88a1,1,0,0,0-.49-1L55.1,41.68a1,1,0,0,1,.49,1Z"/><polygon class="cls-3" points="54.66 42.7 44.07 36.94 43.97 36.82 54.56 42.58 54.66 42.7"/><path class="cls-3" d="M44.51,35.92,55.1,41.68a.92.92,0,0,0-.23-.09L44.28,35.83A.92.92,0,0,1,44.51,35.92Z"/><path class="cls-2" d="M40.1,40.07c3.93-.76,4.84-2.15,4.9-3.19l10.59,5.76c-.07,1-1,2.43-4.9,3.18Z"/><polygon class="cls-2" points="50.54 45.98 39.95 40.22 40.1 40.06 50.69 45.83 50.54 45.98"/><polygon class="cls-2" points="50.2 47.62 39.62 41.86 39.95 40.22 50.54 45.98 50.2 47.62"/><polygon class="cls-3" points="49.3 47.53 38.71 41.77 39.05 40.13 49.63 45.88 49.3 47.53"/><path class="cls-2" d="M33.38,53.12,22.79,47.36a5.89,5.89,0,0,0,3.89.64,8.43,8.43,0,0,0,5-2.76,8.8,8.8,0,0,1,1.91-1.53A6.94,6.94,0,0,1,35.87,43a14.93,14.93,0,0,1,2.51-.11h.19a1.35,1.35,0,0,0,1-1.07L50.2,47.62a1.3,1.3,0,0,1-1,1.06.62.62,0,0,1-.19,0,14.9,14.9,0,0,0-2.51.11,6.87,6.87,0,0,0-2.27.67A8.85,8.85,0,0,0,42.27,51a8.37,8.37,0,0,1-5,2.76A5.93,5.93,0,0,1,33.38,53.12Z"/><path class="cls-3" d="M49.12,47.68,38.54,41.92a.18.18,0,0,0,.17-.15L49.3,47.53A.19.19,0,0,1,49.12,47.68Z"/><path class="cls-3" d="M50.65,44.83,40.06,39.08c3.64-.71,4-1.82,4-2.14L54.66,42.7C54.64,43,54.29,44.13,50.65,44.83Z"/><path class="cls-3" d="M49.63,45.88,39.05,40.13a1.32,1.32,0,0,1,1-1.05l10.59,5.75A1.37,1.37,0,0,0,49.63,45.88Z"/><path class="cls-3" d="M50.75,40.07,40.17,34.31a17.31,17.31,0,0,0,4.11,1.52l10.59,5.76A17.57,17.57,0,0,1,50.75,40.07Z"/><path class="cls-4" d="M39.65,35.23A18.79,18.79,0,0,0,44,36.82l10.59,5.76A18.61,18.61,0,0,1,50.24,41Z"/><path class="cls-2" d="M40.17,34.31a7.44,7.44,0,0,1-2-1.51l10.59,5.76a7.38,7.38,0,0,0,2,1.51Z"/><path class="cls-2" d="M38.16,32.8a5,5,0,0,1-.46-.59L48.29,38a4.1,4.1,0,0,0,.46.59L46.2,37.18l-2.75-1.5-.69-.37-1.38-.75L40,33.83l-1.27-.7A3.25,3.25,0,0,1,38.16,32.8Z"/><path class="cls-2" d="M40.28,26.65a3.53,3.53,0,0,0,1.09-1.75L52,30.65a3.51,3.51,0,0,1-1.09,1.75Z"/><path class="cls-2" d="M37.7,32.21a4.14,4.14,0,0,1-.34-.66L48,37.31a4.14,4.14,0,0,0,.34.66L43,35.09l-.69-.38L40.92,34l-.67-.36-.66-.37-.65-.35A6.17,6.17,0,0,1,37.7,32.21Z"/><path class="cls-2" d="M38.9,27.47a4.39,4.39,0,0,0,1.38-.82L50.87,32.4a4.23,4.23,0,0,1-1.38.83Z"/><path class="cls-2" d="M38.6,27.57l.3-.1,10.59,5.76-.3.1Z"/><path class="cls-2" d="M41.37,24.9a1.66,1.66,0,0,0-.43-1.76L51.53,28.9A1.65,1.65,0,0,1,52,30.65Z"/><path class="cls-2" d="M40.94,23.14l-.1-.06,10.59,5.76.1.06L46.23,26l-1.38-.75-.69-.37-1.34-.73-.65-.36C41.8,23.61,41.3,23.36,40.94,23.14Z"/><path class="cls-3" d="M40.33,24l10.59,5.75,0,0a.76.76,0,0,1,.12.75L40.47,24.76a.78.78,0,0,0-.11-.75Z"/><path class="cls-2" d="M37.36,31.55a4,4,0,0,1,.12-3l10.59,5.76a3.88,3.88,0,0,0-.12,3l-5.3-2.88-1.38-.76-.69-.37-2-1.08A4.61,4.61,0,0,1,37.36,31.55Z"/><path class="cls-2" d="M37.48,28.57a1.79,1.79,0,0,1,1.12-1l10.59,5.76a1.75,1.75,0,0,0-1.12,1Z"/><path class="cls-3" d="M50.24,41,39.65,35.23A6.49,6.49,0,0,1,36.5,32a5,5,0,0,1,.14-3.79,3,3,0,0,1,1.82-1.65,2.77,2.77,0,0,0,2-1.84l10.59,5.76a2.77,2.77,0,0,1-2,1.84A3,3,0,0,0,47.23,34a5,5,0,0,0-.15,3.79A6.52,6.52,0,0,0,50.24,41Z"/><path class="cls-4" d="M40.16,24a.23.23,0,0,1,.17,0l10.59,5.75a.35.35,0,0,0-.18,0,1.17,1.17,0,0,0-.46.22A5.24,5.24,0,0,1,48,31a2.29,2.29,0,0,1-1.39-.17L36,25.05a2.31,2.31,0,0,0,1.39.17,5.19,5.19,0,0,0,2.3-1A1.14,1.14,0,0,1,40.16,24Z"/><path class="cls-3" d="M40.84,23.08l10.59,5.76a1.11,1.11,0,0,0-.68-.11,2.23,2.23,0,0,0-.91.4A4.28,4.28,0,0,1,48,30a1.59,1.59,0,0,1-.68,0L36.69,24.2a1.63,1.63,0,0,0,.69,0,4.33,4.33,0,0,0,1.88-.85,2.12,2.12,0,0,1,.91-.4A1.09,1.09,0,0,1,40.84,23.08Z"/><path class="cls-3" d="M46.59,30.81,36,25.05l0,0,10.59,5.76S46.56,30.79,46.59,30.81Z"/><polygon class="cls-3" points="46.54 30.77 35.95 25.02 35.76 24.9 46.34 30.66 46.54 30.77"/><path class="cls-3" d="M33.86,52.19,23.28,46.43a5.08,5.08,0,0,0,3.4.56,7.39,7.39,0,0,0,4.44-2.47,9.37,9.37,0,0,1,2.17-1.71A7.7,7.7,0,0,1,35.87,42a16.42,16.42,0,0,1,2.67-.12l10.58,5.76a16.31,16.31,0,0,0-2.66.12,7.93,7.93,0,0,0-2.58.76,9.68,9.68,0,0,0-2.17,1.72,7.39,7.39,0,0,1-4.45,2.47A5.1,5.1,0,0,1,33.86,52.19Z"/><path class="cls-4" d="M23.28,46.43c-.37-.2-.71-.43-1.05-.66l10.59,5.76a10.82,10.82,0,0,0,1,.66Z"/><polygon class="cls-2" points="47.28 29.96 36.69 24.2 36.7 19.07 47.28 24.83 47.28 29.96"/><polygon class="cls-3" points="46.34 30.66 35.76 24.9 35.77 19.2 46.35 24.96 46.34 30.66"/><path class="cls-3" d="M33.38,53.12,22.79,47.36c-.41-.22-.77-.47-1.13-.71a11.31,11.31,0,0,0-1-.62l10.59,5.76a11.31,11.31,0,0,1,1,.62A12.15,12.15,0,0,0,33.38,53.12Z"/><path class="cls-4" d="M22.23,45.77c-.34-.23-.68-.47-1.05-.67l10.59,5.76c.37.2.71.44,1.05.67h0L22.23,45.77Z"/><path class="cls-2" d="M24.8,51.92,14.22,46.16a.86.86,0,0,0,.57.1.72.72,0,0,0,.19,0,15.16,15.16,0,0,1,2.51-.59,6.1,6.1,0,0,1,2.26,0,3.83,3.83,0,0,1,.94.37l10.59,5.76a4.51,4.51,0,0,0-.94-.38,6.33,6.33,0,0,0-2.26,0,15.32,15.32,0,0,0-2.52.59.58.58,0,0,1-.18,0A.88.88,0,0,1,24.8,51.92Z"/><polygon class="cls-4" points="25.24 50.91 14.65 45.15 14.32 43.6 24.91 49.36 25.24 50.91"/><path class="cls-3" d="M21.18,45.1l10.59,5.76a4.84,4.84,0,0,0-1.12-.44,7.12,7.12,0,0,0-2.57,0,17.7,17.7,0,0,0-2.7.64L14.79,45.26a18,18,0,0,1,2.7-.64,7.18,7.18,0,0,1,2.58,0A4.94,4.94,0,0,1,21.18,45.1Z"/><path class="cls-3" d="M25.31,51,14.72,45.25a.09.09,0,0,0,.07,0L25.38,51A.08.08,0,0,1,25.31,51Z"/><polygon class="cls-3" points="24.33 51.26 13.74 45.51 13.42 43.95 24 49.71 24.33 51.26"/><path class="cls-4" d="M14.65,45.15l10.59,5.76s0,.08.06.09L14.72,45.24A.11.11,0,0,1,14.65,45.15Z"/><path class="cls-3" d="M24.8,51.92,14.22,46.16a.94.94,0,0,1-.48-.66l10.59,5.76A.92.92,0,0,0,24.8,51.92Z"/><path class="cls-2" d="M32.41,11.15,43,16.91a8.66,8.66,0,0,1,4.29,7.92L36.7,19.07A8.66,8.66,0,0,0,32.41,11.15Z"/><path class="cls-3" d="M31.89,12.07l10.59,5.76A7.77,7.77,0,0,1,46.35,25L35.77,19.2A7.79,7.79,0,0,0,31.89,12.07Z"/><path class="cls-4" d="M14.32,43.6a1,1,0,0,0-.47-.66L24.43,48.7a1,1,0,0,1,.48.66Z"/><polygon class="cls-3" points="24 49.71 13.42 43.95 13.26 43.84 23.85 49.6 24 49.71"/><path class="cls-4" d="M30.33,11.44a8,8,0,0,1,1.56.63l10.59,5.76a8,8,0,0,0-1.57-.63Z"/><path class="cls-2" d="M19.9,49.17,9.31,43.41a7.19,7.19,0,0,0,3.95.43L23.85,49.6A7.17,7.17,0,0,1,19.9,49.17Z"/><polygon class="cls-4" points="19.89 47.58 9.3 41.83 9.4 41.67 19.99 47.43 19.89 47.58"/><path class="cls-3" d="M20.43,48.27,9.84,42.51a6.36,6.36,0,0,0,3.47.33,1,1,0,0,1,.54.1L24.43,48.7a1,1,0,0,0-.53-.11A6.27,6.27,0,0,1,20.43,48.27Z"/><path class="cls-4" d="M26.74,11.24a8.87,8.87,0,0,1,3.59.2L40.91,17.2a8.81,8.81,0,0,0-3.58-.2Z"/><polygon class="cls-4" points="28.07 33.37 17.48 27.61 17.67 27.44 28.25 33.2 28.07 33.37"/><path class="cls-4" d="M16.77,31a2,2,0,0,0-.84-.88l10.58,5.76a1.89,1.89,0,0,1,.84.88L16.77,31,27.35,36.8a4.76,4.76,0,0,1,.14,3.76h0L16.9,34.8l10.59,5.76c-.85,2.37-3.37,4.69-7.5,6.87L9.4,41.67c4.13-2.18,6.65-4.5,7.5-6.87A4.81,4.81,0,0,0,16.77,31Z"/><path class="cls-4" d="M9.84,42.51a.87.87,0,0,1-.54-.69l10.59,5.76a.87.87,0,0,0,.54.69Z"/><path class="cls-3" d="M19.9,49.17,9.31,43.41A1.62,1.62,0,0,1,8.37,42a1.37,1.37,0,0,1,.72-1.25c3.81-2,6.22-4.18,7-6.24a3.75,3.75,0,0,0-.11-2.94,1.17,1.17,0,0,0-.5-.53L26,36.83a1.2,1.2,0,0,1,.49.53,3.69,3.69,0,0,1,.12,2.94c-.74,2.06-3.14,4.22-6.95,6.24A1.37,1.37,0,0,0,19,47.79,1.63,1.63,0,0,0,19.9,49.17Z"/><path class="cls-2" d="M23.85,36.29,13.26,30.54a3.47,3.47,0,0,0,1.55.38,1.26,1.26,0,0,1,.62.15L26,36.83a1.26,1.26,0,0,0-.62-.15A3.34,3.34,0,0,1,23.85,36.29Z"/><path class="cls-3" d="M24.34,35.37,13.75,29.61a2.59,2.59,0,0,0,1.2.29,2.13,2.13,0,0,1,1,.26l10.58,5.76a2.06,2.06,0,0,0-1-.26A2.56,2.56,0,0,1,24.34,35.37Z"/><polygon class="cls-4" points="28.25 33.2 17.67 27.44 17.68 21.75 28.26 27.5 28.25 33.2"/><polygon class="cls-3" points="27.32 32.76 16.74 27 16.75 21.88 27.33 27.64 27.32 32.76"/><path class="cls-4" d="M13.75,29.61a1.59,1.59,0,0,1-.8-1l10.58,5.76a1.61,1.61,0,0,0,.81,1Z"/><path class="cls-4" d="M23.53,34.39,13,28.63a.85.85,0,0,1,.12-.78.3.3,0,0,1,.2-.1.83.83,0,0,1,.46.09,4.25,4.25,0,0,0,2.3.39,2.85,2.85,0,0,0,1.45-.62l10.59,5.76a2.79,2.79,0,0,1-1.45.61,4.14,4.14,0,0,1-2.3-.38.85.85,0,0,0-.46-.09.34.34,0,0,0-.2.09A.91.91,0,0,0,23.53,34.39Z"/><path class="cls-3" d="M23.85,36.29,13.26,30.54A2.47,2.47,0,0,1,12.05,29a2,2,0,0,1,.44-1.88,1.33,1.33,0,0,1,.77-.39,1.66,1.66,0,0,1,.91.15,3.44,3.44,0,0,0,1.87.32,2.06,2.06,0,0,0,.7-.22l10.58,5.76a2,2,0,0,1-.69.22,3.45,3.45,0,0,1-1.87-.33,1.76,1.76,0,0,0-.91-.14,1.33,1.33,0,0,0-.77.39,2,2,0,0,0-.44,1.88A2.39,2.39,0,0,0,23.85,36.29Z"/><path class="cls-4" d="M17.68,21.75a10.64,10.64,0,0,1,9.06-10.51l9.35,5.09,1.24.67a10.64,10.64,0,0,0-9.07,10.5Z"/><path class="cls-3" d="M54.87,41.59a1,1,0,0,1,.72,1c-.07,1-1,2.43-4.9,3.18l-.15.16-.34,1.64a1.3,1.3,0,0,1-1,1.06.62.62,0,0,1-.19,0,14.9,14.9,0,0,0-2.51.11,6.87,6.87,0,0,0-2.27.67A8.85,8.85,0,0,0,42.27,51a8.37,8.37,0,0,1-5,2.76,6.31,6.31,0,0,1-5-1.35,6.14,6.14,0,0,0-1.91-1,6.33,6.33,0,0,0-2.26,0,15.32,15.32,0,0,0-2.52.59.58.58,0,0,1-.18,0,.92.92,0,0,1-1.05-.76L24,49.71l-.15-.11C19.93,50,19,48.8,19,47.79a1.37,1.37,0,0,1,.72-1.25c3.81-2,6.21-4.18,7-6.24a3.69,3.69,0,0,0-.12-2.94,1.19,1.19,0,0,0-1.11-.68,2.69,2.69,0,0,1-2.76-1.9,2,2,0,0,1,.44-1.88,1.33,1.33,0,0,1,.77-.39,1.76,1.76,0,0,1,.91.14,3.45,3.45,0,0,0,1.87.33,2,2,0,0,0,.69-.22V27.64A11.77,11.77,0,0,1,37.32,16c5.7-.8,10,3,10,8.83V30A1.59,1.59,0,0,0,48,30a4.28,4.28,0,0,0,1.88-.85,2.23,2.23,0,0,1,.91-.4,1.1,1.1,0,0,1,.78.17A1.65,1.65,0,0,1,52,30.65a3.9,3.9,0,0,1-2.77,2.68,1.75,1.75,0,0,0-1.12,1,3.88,3.88,0,0,0-.12,3C48.67,39.15,51.07,40.64,54.87,41.59Zm-4.22,3.24c3.64-.7,4-1.81,4-2.13l-.1-.12c-4.12-1-6.63-2.64-7.48-4.78A5,5,0,0,1,47.23,34a3,3,0,0,1,1.82-1.65,2.77,2.77,0,0,0,2-1.84.76.76,0,0,0-.12-.75.25.25,0,0,0-.2,0,1.17,1.17,0,0,0-.46.22A5.24,5.24,0,0,1,48,31a2.08,2.08,0,0,1-1.44-.21l-.2-.11V25c0-5.26-3.87-8.68-9-8a10.64,10.64,0,0,0-9.07,10.5v5.7l-.18.17a2.79,2.79,0,0,1-1.45.61,4.14,4.14,0,0,1-2.3-.38.85.85,0,0,0-.46-.09.34.34,0,0,0-.2.09.91.91,0,0,0-.13.79,1.93,1.93,0,0,0,2,1.27,2,2,0,0,1,1.81,1.14,4.76,4.76,0,0,1,.14,3.76c-.85,2.37-3.37,4.69-7.5,6.87l-.1.15c0,.32.37,1.33,4,1a.94.94,0,0,1,1,.77l.33,1.55c0,.08.07.12.14.11a17.7,17.7,0,0,1,2.7-.64,7.12,7.12,0,0,1,2.57,0,6.75,6.75,0,0,1,2.17,1.11,5.56,5.56,0,0,0,4.44,1.22,7.39,7.39,0,0,0,4.45-2.47,9.68,9.68,0,0,1,2.17-1.72,7.93,7.93,0,0,1,2.58-.76,16.31,16.31,0,0,1,2.66-.12.19.19,0,0,0,.18-.15l.33-1.65a1.37,1.37,0,0,1,1-1.05"/><path class="cls-4" d="M37.33,17c5.15-.72,9,2.7,9,8v5.7l.2.11A2.08,2.08,0,0,0,48,31a5.24,5.24,0,0,0,2.3-1,1.17,1.17,0,0,1,.46-.22.25.25,0,0,1,.2,0,.76.76,0,0,1,.12.75,2.77,2.77,0,0,1-2,1.84A3,3,0,0,0,47.23,34a5,5,0,0,0-.15,3.79c.85,2.14,3.36,3.75,7.48,4.78l.1.12c0,.32-.37,1.43-4,2.13a1.37,1.37,0,0,0-1,1.05l-.33,1.65a.19.19,0,0,1-.15.15,16.53,16.53,0,0,0-2.69.12,7.93,7.93,0,0,0-2.58.76,9.68,9.68,0,0,0-2.17,1.72,7.39,7.39,0,0,1-4.45,2.47,5.56,5.56,0,0,1-4.44-1.22,6.75,6.75,0,0,0-2.17-1.11,7.12,7.12,0,0,0-2.57,0,16.42,16.42,0,0,0-2.67.64.14.14,0,0,1-.17-.11l-.33-1.55a.94.94,0,0,0-1-.77c-3.64.32-4-.69-4-1l.1-.15c4.13-2.18,6.65-4.5,7.5-6.87a4.76,4.76,0,0,0-.14-3.76,2,2,0,0,0-1.81-1.14,1.93,1.93,0,0,1-2-1.27.91.91,0,0,1,.13-.79.34.34,0,0,1,.2-.09.85.85,0,0,1,.46.09,4.14,4.14,0,0,0,2.3.38,2.79,2.79,0,0,0,1.45-.61l.18-.17V27.5A10.64,10.64,0,0,1,37.33,17Z"/><path class="cls-3" d="M32.41,11.15,43,16.91A9.15,9.15,0,0,0,37.32,16a11.77,11.77,0,0,0-10,11.64L16.75,21.88a11.75,11.75,0,0,1,10-11.64A9.13,9.13,0,0,1,32.41,11.15Z"/><path class="cls-5" d="M47.52.88a7.44,7.44,0,0,0-4.64-.8L10.63,4.61c-4.79.68-8.69,5.42-8.7,10.6L1.87,50a8.11,8.11,0,0,0,4,7.35l10.59,5.76a8.13,8.13,0,0,1-4-7.35L12.52,21c0-5.19,3.91-9.93,8.7-10.6L53.47,5.84a7.45,7.45,0,0,1,4.64.8Z"/><path class="cls-2" d="M53.47,5.84c4.8-.67,8.67,3,8.66,8.15l-.06,34.8c0,5.18-3.9,9.92-8.7,10.6L21.12,63.92c-4.79.67-8.67-3-8.67-8.15L12.52,21c0-5.19,3.91-9.93,8.7-10.6Zm2.12,36.8a1,1,0,0,0-.72-1c-3.8-1-6.2-2.44-6.92-4.28a3.88,3.88,0,0,1,.12-3,1.75,1.75,0,0,1,1.12-1A3.9,3.9,0,0,0,52,30.65a1.65,1.65,0,0,0-.43-1.75,1.1,1.1,0,0,0-.78-.17,2.23,2.23,0,0,0-.91.4A4.28,4.28,0,0,1,48,30a1.59,1.59,0,0,1-.68,0V24.83C47.3,19,43,15.2,37.32,16a11.77,11.77,0,0,0-10,11.64v5.12a2,2,0,0,1-.69.22,3.45,3.45,0,0,1-1.87-.33,1.76,1.76,0,0,0-.91-.14,1.33,1.33,0,0,0-.77.39,2,2,0,0,0-.44,1.88,2.69,2.69,0,0,0,2.76,1.9,1.19,1.19,0,0,1,1.11.68,3.69,3.69,0,0,1,.12,2.94c-.74,2.06-3.14,4.22-6.95,6.24A1.37,1.37,0,0,0,19,47.79c.07,1,1,2.16,4.89,1.81l.15.11.33,1.55a.92.92,0,0,0,1.05.76.58.58,0,0,0,.18,0,15.32,15.32,0,0,1,2.52-.59,6.33,6.33,0,0,1,2.26,0,6.14,6.14,0,0,1,1.91,1,6.31,6.31,0,0,0,5,1.35,8.37,8.37,0,0,0,5-2.76,8.85,8.85,0,0,1,1.92-1.53,6.87,6.87,0,0,1,2.27-.67A14.9,14.9,0,0,1,49,48.69a.62.62,0,0,0,.19,0,1.3,1.3,0,0,0,1-1.06L50.54,46l.15-.16c3.92-.75,4.83-2.14,4.9-3.18"/></g></g></svg>