<svg id="Layer_1" data-name="Layer 1" xmlns="http://www.w3.org/2000/svg" xmlns:xlink="http://www.w3.org/1999/xlink" viewBox="0 0 64 64"><defs><style>.cls-1{fill:none;}.cls-2{fill:gray;}.cls-3{fill:#a0a0a0;}.cls-4{isolation:isolate;}.cls-5{clip-path:url(#clip-path);}.cls-6{fill:#a8a8a8;}.cls-7{fill:#a3a3a3;}.cls-8{fill:#9e9e9e;}.cls-9{fill:#999;}.cls-10{fill:#949494;}.cls-11{fill:#8f8f8f;}.cls-12{fill:#8a8a8a;}.cls-13{clip-path:url(#clip-path-2);}.cls-14{clip-path:url(#clip-path-3);}.cls-15{fill:#858585;}.cls-16{clip-path:url(#clip-path-4);}.cls-17{clip-path:url(#clip-path-5);}.cls-18{clip-path:url(#clip-path-6);}.cls-19{clip-path:url(#clip-path-7);}.cls-20{clip-path:url(#clip-path-8);}.cls-21{clip-path:url(#clip-path-9);}.cls-22{clip-path:url(#clip-path-10);}.cls-23{clip-path:url(#clip-path-11);}.cls-24{clip-path:url(#clip-path-12);}.cls-25{clip-path:url(#clip-path-13);}.cls-26{fill:#7f391c;}.cls-27{clip-path:url(#clip-path-14);}.cls-28{clip-path:url(#clip-path-15);}.cls-29{fill:#a44a24;}.cls-30{clip-path:url(#clip-path-16);}.cls-31{clip-path:url(#clip-path-17);}.cls-32{fill:#813a1c;}.cls-33{fill:#863c1d;}.cls-34{clip-path:url(#clip-path-18);}.cls-35{clip-path:url(#clip-path-19);}.cls-36{clip-path:url(#clip-path-20);}.cls-37{fill:#9a4521;}.cls-38{fill:#9f4823;}.cls-39{clip-path:url(#clip-path-21);}.cls-40{clip-path:url(#clip-path-22);}.cls-41{clip-path:url(#clip-path-23);}.cls-42{fill:#8b3f1e;}.cls-43{fill:#90411f;}.cls-44{fill:#954320;}.cls-45{fill:#f97036;}.cls-46{fill:#7d381b;}.cls-47{fill:#d9622f;}.cls-48{clip-path:url(#clip-path-24);}.cls-49{clip-path:url(#clip-path-25);}.cls-50{clip-path:url(#clip-path-26);}.cls-51{clip-path:url(#clip-path-27);}.cls-52{clip-path:url(#clip-path-28);}.cls-53{fill:#fff;}</style><clipPath id="clip-path"><path class="cls-1" d="M33,33.3c.37,0,.77-.35,1.09-1.13l10.59,5.76c-.32.78-.72,1.08-1.1,1.13Z"/></clipPath><clipPath id="clip-path-2"><path class="cls-1" d="M32.37,33.18a.93.93,0,0,0,.6.12l10.58,5.76a.92.92,0,0,1-.59-.12Z"/></clipPath><clipPath id="clip-path-3"><path class="cls-1" d="M40.9,50.76,30.31,45C30,41,30,36.93,30,36.72l10.59,5.76C40.55,42.69,40.63,46.71,40.9,50.76Z"/></clipPath><clipPath id="clip-path-4"><path class="cls-1" d="M40.55,42.48,30,36.72c1.55-1,2.24-3.48,2.28-3.62l10.59,5.76C42.79,39,42.1,41.52,40.55,42.48Z"/></clipPath><clipPath id="clip-path-5"><path class="cls-1" d="M34.06,32.17a1.9,1.9,0,0,0-.45-2.2L44.2,35.73a1.9,1.9,0,0,1,.45,2.2Z"/></clipPath><clipPath id="clip-path-6"><path class="cls-1" d="M44.2,35.73,33.61,30a10.16,10.16,0,0,0-.17-2.62L44,33.11A9.65,9.65,0,0,1,44.2,35.73Z"/></clipPath><clipPath id="clip-path-7"><path class="cls-1" d="M48.54,22.56a29.52,29.52,0,0,0-9.74-8.93l10.59,5.76a29.52,29.52,0,0,1,9.74,8.93C56,26.59,51.18,25,48.54,22.56Z"/></clipPath><clipPath id="clip-path-8"><path class="cls-1" d="M38.22,14.71l10.59,5.76A28.76,28.76,0,0,1,58,28.73L47.39,23A28.76,28.76,0,0,0,38.22,14.71Z"/></clipPath><clipPath id="clip-path-9"><path class="cls-1" d="M44,33.11,33.44,27.35c.12-.2,2.45-4,.82-5.42l10.58,5.76C46.48,29.13,44.15,32.91,44,33.11Z"/></clipPath><clipPath id="clip-path-10"><path class="cls-1" d="M32.17,50.31,21.58,44.55a18.72,18.72,0,0,1-.17-6.36L32,44A18.46,18.46,0,0,0,32.17,50.31Z"/></clipPath><clipPath id="clip-path-11"><path class="cls-1" d="M36.74,35.5,26.15,29.74c.5-.07.46-1.37.46-1.43L37.2,34.07C37.2,34.13,37.24,35.43,36.74,35.5Z"/></clipPath><clipPath id="clip-path-12"><path class="cls-1" d="M35.6,35.33,25,29.57a2.73,2.73,0,0,0,1.13.17L36.74,35.5A2.8,2.8,0,0,1,35.6,35.33Z"/></clipPath><clipPath id="clip-path-13"><path class="cls-1" d="M32,44,21.41,38.19c.86-3.78,5-6.22,5.19-6.35L37.19,37.6C37,37.73,32.86,40.17,32,44Z"/></clipPath><clipPath id="clip-path-14"><path class="cls-1" d="M33.46,35.66,22.87,29.9a2,2,0,0,0,1.24.13L34.7,35.79A2,2,0,0,1,33.46,35.66Z"/></clipPath><clipPath id="clip-path-15"><path class="cls-1" d="M21,32.14c2.55-.16,5.48-.29,5.63-.3L37.19,37.6c-.15,0-3.09.14-5.63.3Z"/></clipPath><clipPath id="clip-path-16"><path class="cls-1" d="M30.27,15.92a10.29,10.29,0,0,0,.88-3.49l10.59,5.76a10.29,10.29,0,0,1-.88,3.49c-.64,1.37.63,3.34,4,6L34.26,21.93C30.9,19.26,29.63,17.29,30.27,15.92Z"/></clipPath><clipPath id="clip-path-17"><path class="cls-1" d="M33.46,35.66,22.87,29.9c-1.08-.59-.3-2.53-.25-2.66L33.21,33C33.15,33.13,32.37,35.07,33.46,35.66Z"/></clipPath><clipPath id="clip-path-18"><path class="cls-1" d="M19.61,25.17c.64-4.11,2.9-7.88,3.78-11.89L34,19c-.88,4-3.14,7.78-3.78,11.89-.54,3.57-.32,6.25.78,6.85L20.39,32C19.29,31.42,19.07,28.74,19.61,25.17Z"/></clipPath><clipPath id="clip-path-19"><path class="cls-1" d="M31.15,12.43a19,19,0,0,1,7.07,2.28l10.59,5.76a19.11,19.11,0,0,0-7.07-2.28Z"/></clipPath><clipPath id="clip-path-20"><path class="cls-1" d="M20.39,32a1,1,0,0,0,.58.12L31.56,37.9a1,1,0,0,1-.58-.12Z"/></clipPath><clipPath id="clip-path-21"><path class="cls-1" d="M26.74,12.49a17.21,17.21,0,0,1,4.41-.06l10.59,5.76a17.67,17.67,0,0,0-4.41.06Z"/></clipPath><clipPath id="clip-path-22"><path class="cls-1" d="M23.39,13.28a18.58,18.58,0,0,1,3.35-.79l10.59,5.76A18.58,18.58,0,0,0,34,19Z"/></clipPath><clipPath id="clip-path-23"><path class="cls-1" d="M6,28.78c1.27-2.16,7.68-12.31,17.35-15.5L34,19C24.3,22.23,17.9,32.38,16.63,34.54Z"/></clipPath><clipPath id="clip-path-24"><path class="cls-1" d="M38.8,13.63l10.59,5.76A20.18,20.18,0,0,0,41.75,17a18.31,18.31,0,0,0-4.42.09,20.57,20.57,0,0,0-3.08.69c-11.54,3.53-18.7,16.55-18.78,16.69L4.88,28.69C5,28.55,12.12,15.53,23.66,12a20.57,20.57,0,0,1,3.08-.69,18.38,18.38,0,0,1,4.43-.09A20,20,0,0,1,38.8,13.63Z"/></clipPath><clipPath id="clip-path-25"><path class="cls-1" d="M31.17,11.22a9.93,9.93,0,0,0-.25-1.77L41.5,15.21A8.39,8.39,0,0,1,41.75,17Z"/></clipPath><clipPath id="clip-path-26"><path class="cls-1" d="M30.92,9.45a3.36,3.36,0,0,0-1.7-2.18L39.81,13a3.27,3.27,0,0,1,1.69,2.17Z"/></clipPath><clipPath id="clip-path-27"><path class="cls-1" d="M27.29,6.72a4.94,4.94,0,0,1,1.93.55L39.81,13a4.94,4.94,0,0,0-1.93-.55Z"/></clipPath><clipPath id="clip-path-28"><path class="cls-1" d="M23.66,12c.76-3.46,1.54-5,3.63-5.28l10.59,5.76c-2.09.29-2.88,1.82-3.63,5.28Z"/></clipPath></defs><title>social platforms for adult</title><polygon class="cls-2" points="59.35 28.67 48.76 22.91 48.54 22.56 59.13 28.32 59.35 28.67"/><polygon class="cls-3" points="41.02 52.32 30.43 46.56 48.76 22.91 59.35 28.67 41.02 52.32"/><polygon points="40.9 50.76 30.32 45 47.39 22.97 57.98 28.73 40.9 50.76"/><polygon class="cls-3" points="37.25 57.19 26.66 51.43 30.43 46.56 41.02 52.32 37.25 57.19"/><polygon points="37.26 55.47 26.67 49.71 30.32 45 40.9 50.76 37.26 55.47"/><g class="cls-4"><g class="cls-5"><g class="cls-4"><path class="cls-6" d="M43.2,39,32.61,33.28a.86.86,0,0,0,.36,0,1,1,0,0,0,.26-.08L43.82,39a.92.92,0,0,1-.27.08.82.82,0,0,1-.35,0"/><path class="cls-7" d="M43.82,39,33.23,33.22a.6.6,0,0,0,.15-.09L44,38.89a.6.6,0,0,1-.15.09"/><path class="cls-8" d="M44,38.89,33.38,33.13,33.5,33,44.09,38.8l-.12.09"/><path class="cls-9" d="M44.09,38.8,33.5,33l.12-.13,10.59,5.76-.12.13"/><path class="cls-10" d="M44.21,38.67,33.62,32.91a1,1,0,0,0,.13-.16l10.59,5.76a1.12,1.12,0,0,1-.13.16"/><path class="cls-11" d="M44.34,38.51,33.75,32.75a1.83,1.83,0,0,0,.15-.25l10.59,5.76a1.83,1.83,0,0,1-.15.25"/><path class="cls-12" d="M44.49,38.26,33.9,32.5a2.53,2.53,0,0,0,.16-.33l10.59,5.76c0,.12-.11.23-.16.33"/></g></g></g><g class="cls-4"><g class="cls-13"><g class="cls-4"><path class="cls-8" d="M43,38.94,32.37,33.18l0,0L43,39l0,0"/><path class="cls-7" d="M43,39,32.41,33.2a.7.7,0,0,0,.2.08L43.2,39A.7.7,0,0,1,43,39"/><path class="cls-6" d="M43.2,39,32.61,33.28a.86.86,0,0,0,.36,0,1,1,0,0,0,.26-.08L43.82,39a.92.92,0,0,1-.27.08.82.82,0,0,1-.35,0"/></g></g></g><g class="cls-4"><g class="cls-14"><g class="cls-4"><path class="cls-15" d="M40.9,50.76,30.31,45C30,41,30,36.93,30,36.72l10.59,5.76c0,.21.08,4.23.35,8.28"/></g></g></g><g class="cls-4"><g class="cls-16"><g class="cls-4"><path class="cls-7" d="M40.55,42.48,30,36.72l.12-.08L40.67,42.4l-.12.08"/><path class="cls-8" d="M40.67,42.4,30.08,36.64a2.16,2.16,0,0,0,.33-.27L41,42.13a2.16,2.16,0,0,1-.33.27"/><path class="cls-9" d="M41,42.13,30.41,36.37a3.43,3.43,0,0,0,.33-.33L41.33,41.8q-.16.18-.33.33"/><path class="cls-10" d="M41.33,41.8,30.74,36a5.37,5.37,0,0,0,.35-.45l10.59,5.76a5.37,5.37,0,0,1-.35.45"/><path class="cls-11" d="M41.68,41.35,31.09,35.59a5.53,5.53,0,0,0,.42-.69L42.1,40.66a5.53,5.53,0,0,1-.42.69"/><path class="cls-12" d="M42.1,40.66,31.51,34.9A10,10,0,0,0,32,33.73l10.59,5.76a10,10,0,0,1-.53,1.17"/><path class="cls-15" d="M42.63,39.49,32,33.73c.12-.35.19-.59.2-.63l10.59,5.76s-.08.28-.2.63"/></g></g></g><g class="cls-4"><g class="cls-17"><g class="cls-4"><path class="cls-12" d="M44.65,37.93,34.06,32.17l0-.08,10.59,5.76,0,.08"/><path class="cls-15" d="M44.68,37.85,34.09,32.09A1.88,1.88,0,0,0,33.61,30L44.2,35.73a1.88,1.88,0,0,1,.48,2.12"/></g></g></g><g class="cls-4"><g class="cls-18"><g class="cls-4"><path class="cls-15" d="M44.2,35.73,33.61,30a10.16,10.16,0,0,0-.17-2.62L44,33.11a9.65,9.65,0,0,1,.18,2.62"/></g></g></g><polygon points="37.26 55.47 26.67 49.71 21.58 44.55 32.17 50.31 37.26 55.47"/><polygon points="37.25 57.19 26.66 51.43 21.97 46.67 32.56 52.43 37.25 57.19"/><g class="cls-4"><g class="cls-19"><g class="cls-4"><path class="cls-15" d="M59.13,28.32,48.54,22.56a29.52,29.52,0,0,0-9.74-8.93l10.59,5.76a29.52,29.52,0,0,1,9.74,8.93"/></g></g></g><g class="cls-4"><g class="cls-20"><g class="cls-4"><path d="M58,28.73,47.39,23a28.76,28.76,0,0,0-9.17-8.26l10.59,5.76A28.76,28.76,0,0,1,58,28.73"/></g></g></g><g class="cls-4"><g class="cls-21"><g class="cls-4"><path class="cls-11" d="M44,33.11,33.44,27.35c0-.05.15-.25.32-.57l10.59,5.76c-.17.32-.3.52-.33.57"/><path class="cls-12" d="M44.35,32.54,33.76,26.78a12.13,12.13,0,0,0,.68-1.49L45,31.05a12.13,12.13,0,0,1-.68,1.49"/><path class="cls-15" d="M45,31.05,34.44,25.29c.44-1.19.68-2.6-.18-3.36l10.58,5.76c.87.76.63,2.17.19,3.36"/></g></g></g><g class="cls-4"><g class="cls-22"><g class="cls-4"><path d="M32.17,50.31,21.58,44.55a18.72,18.72,0,0,1-.17-6.36L32,44a18.46,18.46,0,0,0,.17,6.36"/></g></g></g><g class="cls-4"><g class="cls-23"><g class="cls-4"><path d="M36.74,35.5,26.15,29.74l.08,0,10.59,5.76-.08,0"/><path d="M36.82,35.48,26.23,29.72l.05,0,10.59,5.76,0,0"/><path d="M36.87,35.45,26.28,29.69l0,0L36.9,35.43l0,0"/><path d="M36.9,35.43,26.32,29.67l0,0,10.59,5.76,0,0"/><path d="M36.94,35.39,26.35,29.63l0,0L37,35.35l0,0"/><path d="M37,35.35,26.38,29.59l.05-.07L37,35.28l0,.07"/><path d="M37,35.28,26.43,29.52a.5.5,0,0,0,.05-.13l10.59,5.76a.52.52,0,0,1-.06.13"/><path d="M37.07,35.15,26.48,29.39a3.52,3.52,0,0,0,.13-1.08L37.2,34.07a3.52,3.52,0,0,1-.13,1.08"/></g></g></g><g class="cls-4"><g class="cls-24"><g class="cls-4"><path d="M35.6,35.33,25,29.57l.32.1,10.59,5.76-.33-.1"/><path d="M35.93,35.43,25.34,29.67a2.16,2.16,0,0,0,.81.07L36.74,35.5a2.14,2.14,0,0,1-.81-.07"/></g></g></g><g class="cls-4"><g class="cls-25"><g class="cls-4"><path d="M32,44,21.41,38.19a8.11,8.11,0,0,1,.25-.84l10.59,5.76A8.11,8.11,0,0,0,32,44"/><path d="M32.25,43.11,21.66,37.35a9,9,0,0,1,.45-1L32.7,42.11a9,9,0,0,0-.45,1"/><path d="M32.7,42.11,22.11,36.35c.18-.32.37-.62.57-.91L33.27,41.2a9.3,9.3,0,0,0-.57.91"/><path d="M33.27,41.2,22.68,35.44c.24-.34.5-.66.76-1L34,40.24c-.26.3-.52.62-.76,1"/><path d="M34,40.24,23.44,34.48a13.43,13.43,0,0,1,1.06-1.07l10.59,5.76A13.43,13.43,0,0,0,34,40.24"/><path d="M35.09,39.17,24.5,33.41A13.87,13.87,0,0,1,26,32.25L36.57,38a13.87,13.87,0,0,0-1.48,1.16"/><path d="M36.57,38,26,32.25c.34-.24.58-.38.62-.41L37.19,37.6s-.28.17-.62.41"/></g></g></g><polygon points="37.2 34.07 26.61 28.31 25.02 26.91 35.61 32.67 37.2 34.07"/><polygon class="cls-26" points="35.6 35.33 25.02 29.57 25.02 26.91 35.61 32.67 35.6 35.33"/><g class="cls-4"><g class="cls-27"><g class="cls-4"><path d="M33.46,35.66,22.87,29.9l0,0L33.5,35.68l0,0"/><path d="M33.5,35.68,22.91,29.92a1,1,0,0,0,.26.09l10.58,5.76a1.06,1.06,0,0,1-.25-.09"/><path d="M33.75,35.77,23.17,30a2.38,2.38,0,0,0,.94,0L34.7,35.79a2.44,2.44,0,0,1-1,0"/></g></g></g><g class="cls-4"><g class="cls-28"><g class="cls-4"><path class="cls-29" d="M31.56,37.9,21,32.14c2.55-.16,5.48-.29,5.63-.3L37.19,37.6c-.15,0-3.09.14-5.63.3"/></g></g></g><g class="cls-4"><g class="cls-30"><g class="cls-4"><path class="cls-15" d="M44.84,27.69,34.26,21.93c-3.25-2.58-4.54-4.5-4-5.86L40.8,21.83c-.49,1.36.8,3.28,4,5.86"/><path class="cls-12" d="M40.8,21.83,30.21,16.07l.06-.15c.09-.19.18-.4.27-.64L41.13,21c-.09.24-.18.45-.27.64l-.06.15"/><path class="cls-15" d="M41.13,21,30.54,15.28a10.78,10.78,0,0,0,.61-2.85l10.59,5.76A10.78,10.78,0,0,1,41.13,21"/></g></g></g><polygon points="34.7 35.79 24.11 30.03 22.62 27.25 33.2 33.01 34.7 35.79"/><g class="cls-4"><g class="cls-31"><g class="cls-4"><path class="cls-32" d="M33.46,35.66,22.87,29.9c-1-.52-.46-2.1-.3-2.55l10.59,5.76c-.16.45-.66,2,.3,2.55"/><path class="cls-33" d="M33.16,33.11,22.57,27.35a.8.8,0,0,0,.05-.11L33.21,33l-.05.11"/></g></g></g><g class="cls-4"><g class="cls-34"><g class="cls-4"><path d="M31,37.78,20.39,32c-1.1-.6-1.32-3.28-.78-6.85a25.06,25.06,0,0,1,1.31-4.7l10.59,5.76a25.06,25.06,0,0,0-1.31,4.7c-.54,3.57-.32,6.25.78,6.85"/><path d="M31.51,26.23,20.92,20.47c.45-1.21.94-2.41,1.38-3.62l10.59,5.76c-.44,1.21-.93,2.41-1.38,3.62"/><path d="M32.89,22.61,22.3,16.85a25.7,25.7,0,0,0,1.09-3.57L34,19a25.7,25.7,0,0,1-1.09,3.57"/></g></g></g><path d="M44.2,35.73a1.9,1.9,0,0,1,.45,2.2c-.32.78-.72,1.08-1.1,1.13a1,1,0,0,1-.72-.2c0,.14-.73,2.66-2.28,3.62,0,.21.08,4.23.35,8.28l-3.64,4.71-5.09-5.16A18.46,18.46,0,0,1,32,44c.86-3.78,5-6.22,5.19-6.35-.15,0-3.09.14-5.63.3-1.59.11-2-2.83-1.36-7S33.1,23.05,34,19a18.58,18.58,0,0,1,3.35-.79,17.67,17.67,0,0,1,4.41-.06,10.29,10.29,0,0,1-.88,3.49c-.64,1.37.63,3.34,4,6,1.64,1.44-.69,5.22-.82,5.42A9.65,9.65,0,0,1,44.2,35.73ZM33.21,33c-.07.16-1.28,3.18,1.49,2.79L33.21,33m3.53,2.5c.5-.07.46-1.37.46-1.43l-1.59-1.4v2.66a2.8,2.8,0,0,0,1.14.17"/><g class="cls-4"><g class="cls-35"><g class="cls-4"><path class="cls-6" d="M41.74,18.19,31.15,12.43a17.38,17.38,0,0,1,2.53.46l10.58,5.76a17,17,0,0,0-2.52-.46"/><path class="cls-7" d="M44.26,18.65,33.68,12.89a19.49,19.49,0,0,1,3.75,1.41L48,20.06a19.59,19.59,0,0,0-3.76-1.41"/><path class="cls-8" d="M48,20.06,37.43,14.3c.27.13.53.27.79.41l10.59,5.76c-.26-.14-.52-.28-.79-.41"/></g></g></g><g class="cls-4"><g class="cls-36"><g class="cls-4"><path class="cls-37" d="M31,37.78,20.39,32l0,0L31,37.8l0,0"/><path class="cls-38" d="M31,37.8,20.43,32a.68.68,0,0,0,.2.07l10.59,5.76a.68.68,0,0,1-.2-.07"/><path class="cls-29" d="M31.22,37.87,20.63,32.11a1,1,0,0,0,.34,0L31.56,37.9a1,1,0,0,1-.34,0"/></g></g></g><g class="cls-4"><g class="cls-39"><g class="cls-4"><path d="M34,19,23.39,13.28a18.58,18.58,0,0,1,3.35-.79,17.21,17.21,0,0,1,4.41-.06l10.59,5.76a17.67,17.67,0,0,0-4.41.06A18.58,18.58,0,0,0,34,19"/></g></g></g><g class="cls-4"><g class="cls-40"><g class="cls-4"><path d="M34,19,23.39,13.28a18.58,18.58,0,0,1,3.35-.79,17.21,17.21,0,0,1,4.41-.06l10.59,5.76a17.67,17.67,0,0,0-4.41.06A18.58,18.58,0,0,0,34,19"/></g></g></g><g class="cls-4"><g class="cls-41"><g class="cls-4"><path class="cls-42" d="M16.63,34.54,6,28.78c.29-.5.86-1.42,1.68-2.59L18.3,32c-.81,1.17-1.38,2.09-1.67,2.59"/><path class="cls-43" d="M18.3,32,7.72,26.19a45.16,45.16,0,0,1,3.16-4l10.59,5.76a47.41,47.41,0,0,0-3.17,4"/><path class="cls-44" d="M21.47,27.93,10.88,22.17A40,40,0,0,1,14.06,19l10.59,5.76a40,40,0,0,0-3.18,3.22"/><path class="cls-37" d="M24.65,24.71,14.06,19a30.41,30.41,0,0,1,3.22-2.56l10.59,5.76a30.41,30.41,0,0,0-3.22,2.56"/><path class="cls-38" d="M27.87,22.15,17.28,16.39A25.09,25.09,0,0,1,21,14.26L31.54,20a25.09,25.09,0,0,0-3.67,2.13"/><path class="cls-29" d="M31.54,20,21,14.26a22.58,22.58,0,0,1,2.44-1L34,19a22.58,22.58,0,0,0-2.44,1"/></g></g></g><path class="cls-45" d="M30.2,30.93c-.63,4.14-.23,7.08,1.36,7,2.54-.16,5.48-.29,5.63-.3C37,37.73,32.86,40.17,32,44a18.46,18.46,0,0,0,.17,6.36L16.63,34.54C17.9,32.38,24.3,22.23,34,19,33.1,23.05,30.84,26.82,30.2,30.93Z"/><polygon class="cls-46" points="32.17 50.31 21.58 44.55 6.04 28.78 16.63 34.54 32.17 50.31"/><path d="M59.13,28.32l.22.35L41,52.32l-3.77,4.87-4.69-4.76L15.24,34.87l.23-.42c.08-.14,7.24-13.16,18.78-16.69a20.57,20.57,0,0,1,3.08-.69A18.31,18.31,0,0,1,41.75,17C52.49,18,59.06,28.2,59.13,28.32ZM40.9,50.76,58,28.73C56.75,27,50.8,19.18,41.74,18.19a17.67,17.67,0,0,0-4.41.06A18.58,18.58,0,0,0,34,19C24.3,22.23,17.9,32.38,16.63,34.54L32.17,50.31l5.09,5.16,3.64-4.71"/><path class="cls-47" d="M34.7,35.79c-2.77.39-1.56-2.63-1.49-2.79Z"/><g class="cls-4"><g class="cls-48"><g class="cls-4"><polyline points="15.47 34.45 4.88 28.69 4.88 28.69 15.47 34.45 15.47 34.45"/><path d="M15.47,34.45,4.88,28.69c0-.05.72-1.3,2-3.11l10.59,5.76c-1.27,1.81-2,3.06-2,3.11"/><path d="M17.46,31.34,6.87,25.58a47.94,47.94,0,0,1,3.27-4.16l10.59,5.76a47.94,47.94,0,0,0-3.27,4.16"/><path d="M20.73,27.18,10.14,21.42a41.82,41.82,0,0,1,3.32-3.36l10.59,5.76a41.82,41.82,0,0,0-3.32,3.36"/><path d="M24.05,23.82,13.46,18.06a33.25,33.25,0,0,1,3.35-2.67L27.4,21.15a33.25,33.25,0,0,0-3.35,2.67"/><path d="M27.4,21.15,16.81,15.39a27.58,27.58,0,0,1,3.85-2.23l10.59,5.76a27.58,27.58,0,0,0-3.85,2.23"/><path d="M31.25,18.92,20.66,13.16a23,23,0,0,1,3-1.16,20.57,20.57,0,0,1,3.08-.69,18.38,18.38,0,0,1,4.43-.09,18.77,18.77,0,0,1,2.86.51l10.58,5.76A18.55,18.55,0,0,0,41.75,17a18.31,18.31,0,0,0-4.42.09,20.57,20.57,0,0,0-3.08.69,23,23,0,0,0-3,1.16"/><path d="M44.61,17.49,34,11.73A20.53,20.53,0,0,1,38,13.2L48.56,19a20.38,20.38,0,0,0-4-1.47"/><path d="M48.56,19,38,13.2l.83.43,10.59,5.76L48.56,19"/></g></g></g><g class="cls-4"><g class="cls-49"><g class="cls-4"><path class="cls-15" d="M41.75,17,31.17,11.22a9.93,9.93,0,0,0-.25-1.77L41.5,15.21A8.39,8.39,0,0,1,41.75,17"/></g></g></g><g class="cls-4"><g class="cls-50"><g class="cls-4"><path class="cls-15" d="M41.5,15.21,30.92,9.45a3.36,3.36,0,0,0-1.7-2.18L39.81,13a3.32,3.32,0,0,1,1.69,2.18"/></g></g></g><g class="cls-4"><g class="cls-51"><g class="cls-4"><path d="M37.88,12.48,27.29,6.72a4.33,4.33,0,0,1,.87.14l10.59,5.76a4.33,4.33,0,0,0-.87-.14"/><path d="M38.75,12.62,28.16,6.86a5,5,0,0,1,.9.33L39.65,13a6.3,6.3,0,0,0-.9-.33"/><path d="M39.65,13,29.06,7.19l.16.08L39.81,13a.8.8,0,0,1-.16-.08"/></g></g></g><path d="M41.75,17a18.31,18.31,0,0,0-4.42.09,20.57,20.57,0,0,0-3.08.69c.75-3.46,1.54-5,3.63-5.28.15,0,3,.17,3.62,2.73A8.39,8.39,0,0,1,41.75,17Z"/><g class="cls-4"><g class="cls-52"><g class="cls-4"><path d="M34.25,17.76,23.66,12a21.34,21.34,0,0,1,.69-2.54l10.59,5.76a21.34,21.34,0,0,0-.69,2.54"/><path d="M34.94,15.22,24.35,9.46a7.54,7.54,0,0,1,.42-.94l10.59,5.76a7.54,7.54,0,0,0-.42.94"/><path d="M35.36,14.28,24.77,8.52a5.3,5.3,0,0,1,.28-.47l10.59,5.76a5.3,5.3,0,0,0-.28.47"/><path d="M35.64,13.81,25.05,8.05a4,4,0,0,1,.26-.32L35.9,13.49a4,4,0,0,0-.26.32"/><path d="M35.9,13.49,25.31,7.73a2,2,0,0,1,.25-.25l10.59,5.76a2,2,0,0,0-.25.25"/><path d="M36.15,13.24,25.56,7.48a2.09,2.09,0,0,1,.29-.23L36.44,13a1.63,1.63,0,0,0-.29.23"/><path d="M36.44,13,25.85,7.25A2.75,2.75,0,0,1,26.26,7l10.59,5.76a2.33,2.33,0,0,0-.41.24"/><path d="M36.85,12.77,26.26,7a3.45,3.45,0,0,1,1-.29l10.59,5.76a3.45,3.45,0,0,0-1,.29"/></g></g></g><polygon points="32.56 52.43 21.97 46.67 4.65 29.11 15.24 34.87 32.56 52.43"/><polygon points="15.24 34.87 4.65 29.11 4.88 28.69 15.47 34.45 15.24 34.87"/><path class="cls-53" d="M53.47,5.83c4.79-.67,8.67,3,8.66,8.16l-.06,34.8c0,5.18-3.9,9.92-8.7,10.6L21.12,63.92c-4.8.67-8.67-3-8.66-8.15L12.52,21c0-5.18,3.9-9.92,8.7-10.6ZM41,52.32,59.35,28.67l-.22-.35C59.06,28.2,52.49,18,41.75,17a8.39,8.39,0,0,0-.25-1.77c-.62-2.56-3.47-2.72-3.62-2.73-2.09.29-2.88,1.82-3.63,5.28-11.54,3.53-18.7,16.55-18.78,16.69l-.23.42L32.56,52.43l4.69,4.76L41,52.32"/><path class="cls-47" d="M37.2,34.07c0,.06,0,1.36-.46,1.43a2.8,2.8,0,0,1-1.14-.17V32.67Z"/><path class="cls-53" d="M41.74,18.19c9.06,1,15,8.81,16.24,10.54l-17.08,22c-.27-4-.35-8.07-.35-8.28,1.55-1,2.24-3.48,2.28-3.62a1,1,0,0,0,.72.2c.38-.05.78-.35,1.1-1.13a1.9,1.9,0,0,0-.45-2.2A9.65,9.65,0,0,0,44,33.11c.13-.2,2.46-4,.82-5.42-3.35-2.67-4.62-4.64-4-6A10.29,10.29,0,0,0,41.74,18.19Z"/><path class="cls-6" d="M54.82,5.76a7.19,7.19,0,0,1,1,.1l.17,0a8.65,8.65,0,0,1,.91.23l.15,0a7.58,7.58,0,0,1,1,.45L47.52.87,47.25.73a6.81,6.81,0,0,0-.74-.31l-.15,0L45.88.22,45.45.14l-.17,0a7.18,7.18,0,0,0-1-.1H44a8.79,8.79,0,0,0-1.13.07L10.63,4.6a8.87,8.87,0,0,0-1.16.26L9.18,5a8.79,8.79,0,0,0-1,.39l-.08,0h0l-.2.1-.56.3L7,6l-.36.22-.07.06A8,8,0,0,0,5.69,7L5.63,7a.86.86,0,0,0-.13.14c-.22.2-.42.41-.62.62a1.59,1.59,0,0,1-.13.13S4.69,8,4.65,8c-.21.25-.41.51-.6.77L4,8.89l0,0c-.23.33-.43.67-.62,1L3.26,10l-.17.34L3,10.66l-.27.64a1.34,1.34,0,0,1-.07.18v0c-.06.16-.1.32-.15.48l-.13.39c0,.19-.08.37-.13.56s-.06.24-.08.37-.06.41-.09.62,0,.21,0,.32c0,.32-.05.64-.05,1L1.87,50a10.12,10.12,0,0,0,.28,2.37A8.69,8.69,0,0,0,3,54.44a7.87,7.87,0,0,0,1.27,1.69A7.15,7.15,0,0,0,5.9,57.36l10.59,5.76a8.11,8.11,0,0,1-4-7.35L12.52,21c0-.32,0-.64.05-1,0-.11,0-.21,0-.32s.05-.42.09-.62.06-.25.08-.37.08-.37.13-.56.08-.25.13-.38.1-.35.16-.51l.07-.18.27-.64.14-.28.23-.45c.2-.34.4-.68.63-1a1.47,1.47,0,0,0,.1-.13c.19-.26.39-.52.6-.76.07-.09.15-.17.23-.26s.4-.42.61-.62.13-.13.2-.18A8,8,0,0,1,17.2,12l.42-.28.27-.18.57-.3.2-.1.09,0a8.94,8.94,0,0,1,1-.39l.29-.09a8.87,8.87,0,0,1,1.16-.26L53.47,5.83a8.68,8.68,0,0,1,1.13-.07Z"/></svg>