<svg id="Layer_1" data-name="Layer 1" xmlns="http://www.w3.org/2000/svg" xmlns:xlink="http://www.w3.org/1999/xlink" viewBox="0 0 64 64"><defs><style>.cls-1{fill:none;}.cls-2{isolation:isolate;}.cls-3{clip-path:url(#clip-path);}.cls-4{fill:#9e9e9e;}.cls-5{fill:#a3a3a3;}.cls-6{clip-path:url(#clip-path-2);}.cls-7{fill:#999;}.cls-8{fill:#949494;}.cls-9{fill:#8f8f8f;}.cls-10{fill:#8a8a8a;}.cls-11{fill:#858585;}.cls-12{clip-path:url(#clip-path-3);}.cls-13{fill:#ad1447;}.cls-14{fill:#7b0f32;}.cls-15{clip-path:url(#clip-path-4);}.cls-16{fill:#98123e;}.cls-17{fill:#93113c;}.cls-18{fill:#8e113a;}.cls-19{fill:#891038;}.cls-20{fill:#841036;}.cls-21{fill:#7f0f34;}.cls-22{fill:#898989;}.cls-23{clip-path:url(#clip-path-5);}.cls-24{fill:#a8a8a8;}.cls-25{clip-path:url(#clip-path-6);}.cls-26{clip-path:url(#clip-path-7);}.cls-27{fill:#fff;}.cls-28{clip-path:url(#clip-path-8);}.cls-29{clip-path:url(#clip-path-9);}.cls-30{fill:#9d1340;}.cls-31{fill:#a21342;}.cls-32{fill:#8b8b8b;}.cls-33{clip-path:url(#clip-path-10);}.cls-34{fill:#9e1340;}.cls-35{clip-path:url(#clip-path-11);}.cls-36{clip-path:url(#clip-path-12);}.cls-37{clip-path:url(#clip-path-13);}.cls-38{clip-path:url(#clip-path-14);}.cls-39{fill:gray;}.cls-40{clip-path:url(#clip-path-15);}.cls-41{fill:#b4b4b4;}.cls-42{clip-path:url(#clip-path-16);}.cls-43{fill:#90113b;}.cls-44{clip-path:url(#clip-path-17);}.cls-45{clip-path:url(#clip-path-18);}.cls-46{clip-path:url(#clip-path-19);}.cls-47{clip-path:url(#clip-path-20);}.cls-48{clip-path:url(#clip-path-21);}.cls-49{clip-path:url(#clip-path-22);}.cls-50{clip-path:url(#clip-path-23);}.cls-51{clip-path:url(#clip-path-24);}.cls-52{clip-path:url(#clip-path-25);}.cls-53{clip-path:url(#clip-path-26);}.cls-54{fill:#f51d64;}.cls-55{clip-path:url(#clip-path-27);}</style><clipPath id="clip-path"><path class="cls-1" d="M24,51.15c.87.47,1.76.91,2.69,1.32l10.59,5.76c-.93-.41-1.83-.85-2.69-1.32Z"/></clipPath><clipPath id="clip-path-2"><path class="cls-1" d="M26.66,52.47c13.31-9.6,21-24.49,12.79-30L50,28.21c8.2,5.53.52,20.42-12.78,30Z"/></clipPath><clipPath id="clip-path-3"><path class="cls-1" d="M39.45,22.45a11,11,0,0,0-1-.58l10.59,5.76a10.9,10.9,0,0,1,.94.58l-5.29-2.88L44.05,25l-1.38-.75L42,23.83l-.66-.36-1.28-.69Z"/></clipPath><clipPath id="clip-path-4"><path class="cls-1" d="M28,31.81,38.6,37.57a2.3,2.3,0,0,1,1.14,2.09A3.17,3.17,0,0,1,38.63,42L28,36.28a3.21,3.21,0,0,0,1.12-2.38A2.33,2.33,0,0,0,28,31.81Z"/></clipPath><clipPath id="clip-path-5"><path class="cls-1" d="M26.7,31.59a2.13,2.13,0,0,1,1.31.22L38.6,37.57a2.13,2.13,0,0,0-1.31-.22Z"/></clipPath><clipPath id="clip-path-6"><path class="cls-1" d="M25.33,36.66a2.33,2.33,0,0,1-1.1-2.07l10.59,5.76a2.33,2.33,0,0,0,1.1,2.07C32.75,40.69,28.49,38.43,25.33,36.66Z"/></clipPath><clipPath id="clip-path-7"><path class="cls-1" d="M24.23,34.59a3.06,3.06,0,0,1,2.47-3l10.59,5.76a3,3,0,0,0-2.47,3Z"/></clipPath><clipPath id="clip-path-8"><path class="cls-1" d="M43,23.64,32.41,17.88a.69.69,0,0,0,.53-.51l10.59,5.76A.69.69,0,0,1,43,23.64Z"/></clipPath><clipPath id="clip-path-9"><path class="cls-1" d="M38.5,21.87l10.59,5.76a7.17,7.17,0,0,0-4.49-.95c-4.76.67-7.18,6.47-7.31,6.77L26.7,27.69c.13-.31,2.55-6.1,7.32-6.77A7.15,7.15,0,0,1,38.5,21.87Z"/></clipPath><clipPath id="clip-path-10"><path class="cls-1" d="M35.15,6.72l10.59,5.76a1.63,1.63,0,0,1,.8,1.46,2.18,2.18,0,0,1-1.16,1.9L34.8,10.08A2.17,2.17,0,0,0,36,8.18,1.63,1.63,0,0,0,35.15,6.72Z"/></clipPath><clipPath id="clip-path-11"><path class="cls-1" d="M40.56,19.07,30,13.31a.26.26,0,0,0,.15,0,.3.3,0,0,0,.18-.1L40.89,19a.3.3,0,0,1-.18.1A.25.25,0,0,1,40.56,19.07Z"/></clipPath><clipPath id="clip-path-12"><path class="cls-1" d="M40.56,19.07,30,13.31a.18.18,0,0,1-.09-.1L40.47,19A.18.18,0,0,0,40.56,19.07Z"/></clipPath><clipPath id="clip-path-13"><path class="cls-1" d="M35.15,6.72l10.59,5.76a1.46,1.46,0,0,0-.91-.15l-.21,0a2.14,2.14,0,0,0-1.49,1.77,1.66,1.66,0,0,0,.65,1.65L33.19,10a1.66,1.66,0,0,1-.65-1.65A2.15,2.15,0,0,1,34,6.61a.65.65,0,0,1,.2,0A1.46,1.46,0,0,1,35.15,6.72Z"/></clipPath><clipPath id="clip-path-14"><path class="cls-1" d="M26.7,27.69A9.55,9.55,0,0,0,23,23.63l10.59,5.76a9.63,9.63,0,0,1,3.66,4.06C34.12,31.72,29.18,30.32,26.7,27.69Z"/></clipPath><clipPath id="clip-path-15"><path class="cls-1" d="M23,23.63l10.59,5.76A5.78,5.78,0,0,0,30,28.73L19.41,23A5.78,5.78,0,0,1,23,23.63Z"/></clipPath><clipPath id="clip-path-16"><path class="cls-1" d="M31.33,25.18,20.74,19.42a.51.51,0,0,0,.3.06l10.59,5.76A.51.51,0,0,1,31.33,25.18Z"/></clipPath><clipPath id="clip-path-17"><path class="cls-1" d="M33.79,20,23.2,14.26a.24.24,0,0,0,.15,0,.29.29,0,0,0,.23-.18l10.59,5.76a.29.29,0,0,1-.24.18A.22.22,0,0,1,33.79,20Z"/></clipPath><clipPath id="clip-path-18"><path class="cls-1" d="M31.33,25.18,20.74,19.42a.45.45,0,0,1-.23-.3L31.1,24.88A.45.45,0,0,0,31.33,25.18Z"/></clipPath><clipPath id="clip-path-19"><path class="cls-1" d="M33.79,20,23.2,14.26l0,0L33.75,20Z"/></clipPath><clipPath id="clip-path-20"><path class="cls-1" d="M25.82,9.31l.15.07,9.35,5.09,1.24.67-.15-.07Z"/></clipPath><clipPath id="clip-path-21"><path class="cls-1" d="M28.44,7.12a1.54,1.54,0,0,0-.78-1.2l10.59,5.76a1.59,1.59,0,0,1,.78,1.2,2.16,2.16,0,0,1-.94,2L27.51,9.16A2.17,2.17,0,0,0,28.44,7.12Z"/></clipPath><clipPath id="clip-path-22"><path class="cls-1" d="M27.66,5.92l10.59,5.76a1.47,1.47,0,0,0-.72-.17h-.2L26.74,5.76H27A1.46,1.46,0,0,1,27.66,5.92Z"/></clipPath><clipPath id="clip-path-23"><path class="cls-1" d="M36.41,15.07,25.82,9.31A1.59,1.59,0,0,1,25,7.86a2.14,2.14,0,0,1,1.71-2.1l10.59,5.76a2.14,2.14,0,0,0-1.71,2.1A1.59,1.59,0,0,0,36.41,15.07Z"/></clipPath><clipPath id="clip-path-24"><path class="cls-1" d="M18.32,12.21a1.51,1.51,0,0,0,.35.14l10.59,5.76a1.51,1.51,0,0,1-.35-.14Z"/></clipPath><clipPath id="clip-path-25"><path class="cls-1" d="M20.94,10a1.59,1.59,0,0,0-.78-1.18l10.59,5.76a1.59,1.59,0,0,1,.78,1.18,2.17,2.17,0,0,1-.66,1.84L20.28,11.85A2.17,2.17,0,0,0,20.94,10Z"/></clipPath><clipPath id="clip-path-26"><path class="cls-1" d="M34.56,56.91,24,51.15C12.4,44.85,6.33,33.32,14,26A10.13,10.13,0,0,1,19.41,23L30,28.73a10.13,10.13,0,0,0-5.43,3.06C16.92,39.08,23,50.61,34.56,56.91Z"/></clipPath><clipPath id="clip-path-27"><path class="cls-1" d="M28.91,18,18.32,12.21a1.59,1.59,0,0,1-.79-1.44,2.13,2.13,0,0,1,1.72-2.1h.2a1.43,1.43,0,0,1,.71.17l10.59,5.76a1.46,1.46,0,0,0-.71-.17h-.2a2.13,2.13,0,0,0-1.72,2.1A1.59,1.59,0,0,0,28.91,18Z"/></clipPath></defs><title>social platforms for adult</title><g class="cls-2"><g class="cls-3"><g class="cls-2"><path class="cls-4" d="M34.56,56.91,24,51.15c.44.24.88.47,1.33.69L35.89,57.6c-.45-.22-.9-.45-1.33-.69"/><path class="cls-5" d="M35.89,57.6,25.3,51.84c.44.22.9.43,1.36.63l10.59,5.76c-.46-.2-.92-.41-1.36-.63"/></g></g></g><g class="cls-2"><g class="cls-6"><g class="cls-2"><path class="cls-4" d="M37.25,58.23,26.66,52.47a52.7,52.7,0,0,0,4.46-3.6l10.59,5.76a52.7,52.7,0,0,1-4.46,3.6"/><path class="cls-7" d="M41.71,54.63,31.12,48.87a52,52,0,0,0,4.06-4.08l10.59,5.76a52,52,0,0,1-4.06,4.08"/><path class="cls-8" d="M45.77,50.55,35.18,44.79a43.74,43.74,0,0,0,3-3.78l10.59,5.76a43.74,43.74,0,0,1-3,3.78"/><path class="cls-9" d="M48.76,46.77,38.17,41a34.93,34.93,0,0,0,2.13-3.44l10.59,5.76a34.93,34.93,0,0,1-2.13,3.44"/><path class="cls-10" d="M50.89,43.33,40.3,37.57a26.59,26.59,0,0,0,1.49-3.26l10.58,5.76a26.48,26.48,0,0,1-1.48,3.26"/><path class="cls-11" d="M52.37,40.07,41.79,34.31c1.82-5,1.35-9.37-2.34-11.86a11,11,0,0,0-1-.58l10.59,5.76a10.9,10.9,0,0,1,.94.58c3.7,2.49,4.17,6.89,2.34,11.86"/></g></g></g><g class="cls-2"><g class="cls-12"><g class="cls-2"><path class="cls-11" d="M52.37,40.07,41.79,34.31c1.82-5,1.35-9.37-2.34-11.86a11,11,0,0,0-1-.58l10.59,5.76a10.9,10.9,0,0,1,.94.58c3.7,2.49,4.17,6.89,2.34,11.86"/></g></g></g><polygon class="cls-13" points="37.27 48.77 26.68 43.01 29.41 42.62 40 48.38 37.27 48.77"/><polygon class="cls-14" points="40 48.38 29.41 42.62 28.04 36.28 38.63 42.04 40 48.38"/><polygon class="cls-13" points="34.53 49.15 23.94 43.39 26.68 43.01 37.27 48.77 34.53 49.15"/><g class="cls-2"><g class="cls-15"><g class="cls-2"><path class="cls-16" d="M38.63,42,28,36.28l.07-.06L38.7,42l-.07.06"/><path class="cls-17" d="M38.7,42,28.11,36.22a3,3,0,0,0,.25-.25L39,41.73,38.7,42"/><path class="cls-18" d="M39,41.73,28.36,36a3,3,0,0,0,.22-.28l10.59,5.76a3,3,0,0,1-.22.28"/><path class="cls-19" d="M39.17,41.45,28.58,35.69a3.45,3.45,0,0,0,.2-.32l10.59,5.76a3.45,3.45,0,0,1-.2.32"/><path class="cls-20" d="M39.37,41.13,28.78,35.37c.07-.14.13-.27.19-.42l10.58,5.76a3.12,3.12,0,0,1-.18.42"/><path class="cls-21" d="M39.55,40.71,29,35a3.1,3.1,0,0,0,.19-1.05A2.33,2.33,0,0,0,28,31.81L38.6,37.57a2.3,2.3,0,0,1,1.14,2.09,2.87,2.87,0,0,1-.19,1.05"/></g></g></g><polygon class="cls-22" points="34.53 49.15 23.94 43.39 25.33 36.66 35.92 42.42 34.53 49.15"/><g class="cls-2"><g class="cls-23"><g class="cls-2"><path class="cls-24" d="M36.57,37.56,26,31.8a2.59,2.59,0,0,1,.72-.21,2,2,0,0,1,.85,0l10.59,5.76a2,2,0,0,0-.85,0,2.59,2.59,0,0,0-.72.21"/><path class="cls-5" d="M38.14,37.39,27.55,31.63a2,2,0,0,1,.39.14l10.58,5.76a1.74,1.74,0,0,0-.38-.14"/><path class="cls-4" d="M38.52,37.53,27.94,31.77l.07,0L38.6,37.57l-.08,0"/></g></g></g><g class="cls-2"><g class="cls-25"><g class="cls-2"><path class="cls-11" d="M35.92,42.42,25.33,36.66a2.33,2.33,0,0,1-1.1-2.07,3,3,0,0,1,.19-1L35,39.31a3,3,0,0,0-.19,1,2.33,2.33,0,0,0,1.1,2.07"/></g></g></g><g class="cls-2"><g class="cls-26"><g class="cls-2"><path class="cls-11" d="M35.92,42.42,25.33,36.66a2.33,2.33,0,0,1-1.1-2.07,3,3,0,0,1,.19-1L35,39.31a3,3,0,0,0-.19,1,2.33,2.33,0,0,0,1.1,2.07"/><path class="cls-10" d="M35,39.31,24.42,33.55a2.26,2.26,0,0,1,.19-.42l10.58,5.76a3.12,3.12,0,0,0-.18.42"/><path class="cls-9" d="M35.19,38.89,24.61,33.13a2.14,2.14,0,0,1,.2-.32L35.4,38.57a2.2,2.2,0,0,0-.21.32"/><path class="cls-8" d="M35.4,38.57,24.81,32.81a3.15,3.15,0,0,1,.22-.29l10.59,5.76a2,2,0,0,0-.22.29"/><path class="cls-7" d="M35.62,38.28,25,32.52a3,3,0,0,1,.25-.25L35.87,38l-.25.25"/><path class="cls-4" d="M35.87,38,25.28,32.27a3.15,3.15,0,0,1,.3-.24l10.59,5.76a1.76,1.76,0,0,0-.3.24"/><path class="cls-5" d="M36.17,37.79,25.58,32a3.18,3.18,0,0,1,.4-.23l10.59,5.76a3.18,3.18,0,0,0-.4.23"/><path class="cls-24" d="M36.57,37.56,26,31.8a2.59,2.59,0,0,1,.72-.21,2,2,0,0,1,.85,0l10.59,5.76a2,2,0,0,0-.85,0,2.59,2.59,0,0,0-.72.21"/></g></g></g><path class="cls-27" d="M39.74,39.66A3.17,3.17,0,0,1,38.63,42L40,48.38l-2.74.39-2.73.38,1.39-6.73a2.33,2.33,0,0,1-1.1-2.07,3,3,0,0,1,2.47-3A2.16,2.16,0,0,1,39.74,39.66Z"/><g class="cls-2"><g class="cls-28"><g class="cls-2"><path class="cls-24" d="M43,23.64,32.41,17.88l.16-.05,10.59,5.76-.16.05"/><path class="cls-5" d="M43.16,23.59,32.57,17.83l.09,0,10.59,5.76-.09.05"/><path class="cls-4" d="M43.25,23.54,32.66,17.78l.07-.06,10.58,5.76-.06.06"/><path class="cls-7" d="M43.31,23.48,32.73,17.72s0,0,.05,0l10.59,5.76-.06.05"/><path class="cls-8" d="M43.37,23.43,32.78,17.67l0-.07,10.59,5.76-.05.07"/><path class="cls-9" d="M43.42,23.36,32.83,17.6a.22.22,0,0,0,.05-.08l10.59,5.76a.22.22,0,0,1,0,.08"/><path class="cls-10" d="M43.47,23.28,32.88,17.52l0-.09,10.58,5.76a.36.36,0,0,1,0,.09"/><path class="cls-11" d="M43.51,23.19,32.93,17.43s0,0,0-.06l10.59,5.76a.14.14,0,0,1,0,.06"/></g></g></g><g class="cls-2"><g class="cls-29"><g class="cls-2"><path class="cls-20" d="M37.29,33.45,26.7,27.69c0-.08.22-.51.55-1.12l10.59,5.76c-.33.61-.51,1-.55,1.12"/><path class="cls-19" d="M37.84,32.33,27.25,26.57a13.89,13.89,0,0,1,1-1.58l10.59,5.76a13.89,13.89,0,0,0-1,1.58"/><path class="cls-18" d="M38.81,30.75,28.22,25a12.07,12.07,0,0,1,.93-1.19l10.59,5.76a12.07,12.07,0,0,0-.93,1.19"/><path class="cls-17" d="M39.74,29.56,29.15,23.8c.28-.31.58-.62.9-.92l10.59,5.76c-.32.3-.62.61-.9.92"/><path class="cls-16" d="M40.64,28.64,30.05,22.88a11.33,11.33,0,0,1,.94-.74L41.58,27.9a11.33,11.33,0,0,0-.94.74"/><path class="cls-30" d="M41.58,27.9,31,22.14a8.19,8.19,0,0,1,1.12-.65L42.7,27.25a8.19,8.19,0,0,0-1.12.65"/><path class="cls-31" d="M42.7,27.25,32.11,21.49A6.85,6.85,0,0,1,34,20.92a6.46,6.46,0,0,1,2.52.16l10.59,5.76a6.5,6.5,0,0,0-2.53-.16,6.88,6.88,0,0,0-1.9.57"/><path class="cls-30" d="M47.13,26.84,36.54,21.08a8.58,8.58,0,0,1,1.6.6l10.58,5.76a8.25,8.25,0,0,0-1.59-.6"/><path class="cls-16" d="M48.72,27.44,38.14,21.68l.36.19,10.59,5.76-.37-.19"/></g></g></g><polygon class="cls-32" points="43.53 23.13 32.94 17.37 34.8 10.08 45.38 15.84 43.53 23.13"/><g class="cls-2"><g class="cls-33"><g class="cls-2"><path class="cls-5" d="M45.38,15.84,34.8,10.08,35,10l10.59,5.76-.23.13"/><path class="cls-4" d="M45.61,15.71,35,10l.2-.17,10.59,5.76-.2.17"/><path class="cls-7" d="M45.81,15.54,35.22,9.78a1.45,1.45,0,0,0,.18-.17L46,15.37l-.18.17"/><path class="cls-8" d="M46,15.37,35.4,9.61a1.49,1.49,0,0,0,.15-.2l10.59,5.76-.15.2"/><path class="cls-9" d="M46.14,15.17,35.55,9.41a1.64,1.64,0,0,0,.14-.22L46.28,15a1.64,1.64,0,0,1-.14.22"/><path class="cls-10" d="M46.28,15,35.69,9.19a2.55,2.55,0,0,0,.13-.29l10.59,5.76a2.55,2.55,0,0,1-.13.29"/><path class="cls-11" d="M46.41,14.66,35.82,8.9A2,2,0,0,0,36,8.18a1.63,1.63,0,0,0-.8-1.46l10.59,5.76a1.63,1.63,0,0,1,.8,1.46,2.18,2.18,0,0,1-.13.72"/></g></g></g><polygon class="cls-34" points="40.89 18.99 30.3 13.23 33.19 10.03 43.78 15.79 40.89 18.99"/><g class="cls-2"><g class="cls-35"><g class="cls-2"><polyline class="cls-16" points="40.56 19.07 29.97 13.31 29.98 13.31 40.57 19.07 40.56 19.07"/><path class="cls-30" d="M40.57,19.07,30,13.31l0,0,10.59,5.76,0,0"/><path class="cls-31" d="M40.61,19.09,30,13.33h.1l.08,0,10.59,5.76-.08,0a.33.33,0,0,1-.1,0"/><path class="cls-30" d="M40.79,19.07,30.2,13.31l0,0L40.83,19l0,0"/><path class="cls-16" d="M40.83,19,30.24,13.28l0,0L40.86,19l0,0"/><path class="cls-17" d="M40.86,19,30.27,13.26l0,0L40.89,19l0,0"/><polyline class="cls-18" points="40.89 18.99 30.3 13.23 30.3 13.23 40.89 18.99 40.89 18.99"/></g></g></g><g class="cls-2"><g class="cls-36"><g class="cls-2"><path class="cls-11" d="M40.56,19.07,30,13.31a.18.18,0,0,1-.09-.1L40.47,19a.18.18,0,0,0,.09.1"/></g></g></g><g class="cls-2"><g class="cls-37"><g class="cls-2"><path class="cls-21" d="M43.78,15.79,33.19,10a1.66,1.66,0,0,1-.65-1.65,1.67,1.67,0,0,1,.11-.44L43.24,13.7a1.36,1.36,0,0,0-.11.44,1.66,1.66,0,0,0,.65,1.65"/><path class="cls-20" d="M43.24,13.7,32.65,7.94a2.52,2.52,0,0,1,.12-.29l10.59,5.76a1.48,1.48,0,0,0-.12.29"/><path class="cls-19" d="M43.36,13.41,32.77,7.65c0-.08.09-.15.15-.23L43.5,13.18l-.14.23"/><path class="cls-18" d="M43.5,13.18,32.92,7.42c0-.07.1-.13.15-.2L43.66,13l-.16.2"/><path class="cls-17" d="M43.66,13,33.07,7.22,33.25,7,43.84,12.8l-.18.18"/><path class="cls-16" d="M43.84,12.8,33.25,7l.22-.17,10.58,5.76-.21.17"/><path class="cls-30" d="M44.05,12.63,33.47,6.87a2.4,2.4,0,0,1,.27-.16l10.59,5.76-.28.16"/><path class="cls-31" d="M44.33,12.47,33.74,6.71a1.76,1.76,0,0,1,.3-.1.65.65,0,0,1,.2,0,1.45,1.45,0,0,1,.59,0l10.59,5.76a1.46,1.46,0,0,0-.59,0l-.21,0a1.66,1.66,0,0,0-.29.1"/><path class="cls-30" d="M45.42,12.36,34.83,6.6a1,1,0,0,1,.27.1l10.59,5.76a1,1,0,0,0-.27-.1"/><path class="cls-16" d="M45.69,12.46,35.1,6.7l0,0,10.59,5.76-.05,0"/></g></g></g><g class="cls-2"><g class="cls-38"><g class="cls-2"><path class="cls-11" d="M37.29,33.45,26.7,27.69A9.55,9.55,0,0,0,23,23.63l10.59,5.76a9.63,9.63,0,0,1,3.66,4.06"/></g></g></g><polygon class="cls-39" points="40.47 18.97 29.88 13.21 27.5 9.16 38.09 14.92 40.47 18.97"/><g class="cls-2"><g class="cls-40"><g class="cls-2"><path class="cls-31" d="M30,28.73,19.41,23a5.85,5.85,0,0,1,2.27.12l10.58,5.76A5.78,5.78,0,0,0,30,28.73"/><path class="cls-30" d="M32.26,28.85,21.68,23.09a6.1,6.1,0,0,1,1.13.42L33.4,29.27a5.94,5.94,0,0,0-1.14-.42"/><path class="cls-16" d="M33.4,29.27,22.81,23.51l.23.12,10.59,5.76-.23-.12"/></g></g></g><polygon class="cls-41" points="31.63 25.23 21.04 19.48 32.41 17.88 43 23.64 31.63 25.23"/><g class="cls-2"><g class="cls-42"><g class="cls-2"><path class="cls-4" d="M31.33,25.18,20.74,19.42h0l10.59,5.76h0"/><path class="cls-5" d="M31.35,25.19,20.76,19.43l.09,0,10.58,5.76-.08,0"/><path class="cls-24" d="M31.43,25.23,20.85,19.47H21l10.59,5.76h-.2"/></g></g></g><polygon class="cls-43" points="34.17 19.86 23.58 14.1 25.97 9.38 36.56 15.14 34.17 19.86"/><g class="cls-2"><g class="cls-44"><g class="cls-2"><polyline class="cls-16" points="33.78 20.02 23.2 14.26 23.2 14.26 33.79 20.02 33.78 20.02"/><path class="cls-30" d="M33.79,20,23.21,14.26l0,0L33.84,20l-.05,0"/><path class="cls-31" d="M33.84,20,23.25,14.28h.1l.07,0L34,20l-.08,0a.14.14,0,0,1-.09,0"/><path class="cls-30" d="M34,20,23.42,14.26l0,0L34.06,20,34,20"/><path class="cls-16" d="M34.06,20,23.47,14.23l0,0L34.09,20l0,0"/><path class="cls-17" d="M34.09,20,23.5,14.21l0,0,10.59,5.76,0,0"/><path class="cls-18" d="M34.12,19.94,23.53,14.18l0,0,10.59,5.76,0,0"/><path class="cls-19" d="M34.14,19.91,23.55,14.15l0,0,10.58,5.76,0,0"/><path class="cls-20" d="M34.16,19.87,23.58,14.11h0l10.59,5.76h0"/></g></g></g><g class="cls-2"><g class="cls-45"><g class="cls-2"><path class="cls-21" d="M31.33,25.18,20.74,19.42a.45.45,0,0,1-.23-.3L31.1,24.88a.45.45,0,0,0,.23.3"/></g></g></g><g class="cls-2"><g class="cls-46"><g class="cls-2"><path class="cls-11" d="M33.79,20,23.2,14.26l0,0L33.75,20l0,0"/></g></g></g><g class="cls-2"><g class="cls-47"><g class="cls-2"><path class="cls-4" d="M36.41,15.07,25.82,9.31l.05,0,10.59,5.76-.05,0"/><path class="cls-5" d="M36.46,15.09,25.87,9.33l.1.05,10.59,5.76-.1-.05"/></g></g></g><g class="cls-2"><g class="cls-48"><g class="cls-2"><path class="cls-5" d="M38.09,14.92,27.51,9.16h0l10.59,5.76h0"/><path class="cls-4" d="M38.11,14.91,27.52,9.15,27.73,9l10.59,5.76-.21.16"/><path class="cls-7" d="M38.32,14.75,27.73,9l.17-.18,10.59,5.76-.17.18"/><path class="cls-8" d="M38.49,14.57,27.9,8.81a1.56,1.56,0,0,0,.16-.2l10.59,5.76a1.56,1.56,0,0,1-.16.2"/><path class="cls-9" d="M38.65,14.37,28.06,8.61a1.64,1.64,0,0,0,.14-.22l10.59,5.76a1.64,1.64,0,0,1-.14.22"/><path class="cls-10" d="M38.79,14.15,28.2,8.39a2.55,2.55,0,0,0,.13-.29l10.59,5.76a2.55,2.55,0,0,1-.13.29"/><path class="cls-11" d="M38.92,13.86,28.33,8.1a2.16,2.16,0,0,0,.11-1,1.54,1.54,0,0,0-.78-1.2l10.59,5.76a1.59,1.59,0,0,1,.78,1.2,2.16,2.16,0,0,1-.11,1"/></g></g></g><g class="cls-2"><g class="cls-49"><g class="cls-2"><path class="cls-31" d="M37.33,11.52,26.74,5.76H27a1.58,1.58,0,0,1,.38,0l10.59,5.76a1.61,1.61,0,0,0-.39,0h-.2"/><path class="cls-30" d="M37.92,11.55,27.33,5.79a1.69,1.69,0,0,1,.27.1l10.59,5.76a1.69,1.69,0,0,0-.27-.1"/><path class="cls-16" d="M38.19,11.65,27.6,5.89l.06,0,10.59,5.76-.06,0"/></g></g></g><g class="cls-2"><g class="cls-50"><g class="cls-2"><path class="cls-21" d="M36.41,15.07,25.82,9.31A1.59,1.59,0,0,1,25,7.86a2.2,2.2,0,0,1,.13-.73l10.59,5.76a2.2,2.2,0,0,0-.13.73,1.59,1.59,0,0,0,.79,1.45"/><path class="cls-20" d="M35.75,12.89,25.16,7.13a2.55,2.55,0,0,1,.13-.29L35.88,12.6a2.55,2.55,0,0,0-.13.29"/><path class="cls-19" d="M35.88,12.6,25.29,6.84a1.76,1.76,0,0,1,.14-.23L36,12.37a1.76,1.76,0,0,0-.14.23"/><path class="cls-18" d="M36,12.37,25.43,6.61l.16-.2,10.59,5.76-.16.2"/><path class="cls-17" d="M36.18,12.17,25.59,6.41a1.37,1.37,0,0,1,.17-.17L36.35,12a1.37,1.37,0,0,0-.17.17"/><path class="cls-16" d="M36.35,12,25.76,6.24,26,6.07l10.59,5.76-.21.17"/><path class="cls-30" d="M36.56,11.83,26,6.07l.28-.16,10.59,5.76-.28.16"/><path class="cls-31" d="M36.84,11.67,26.25,5.91a2,2,0,0,1,.49-.15l10.59,5.76a2,2,0,0,0-.49.15"/></g></g></g><polygon class="cls-39" points="33.75 19.99 23.16 14.23 20.28 11.85 30.87 17.61 33.75 19.99"/><polygon class="cls-14" points="31.1 24.88 20.51 19.12 18.68 12.35 29.26 18.11 31.1 24.88"/><g class="cls-2"><g class="cls-51"><g class="cls-2"><path class="cls-4" d="M28.91,18,18.32,12.21l.05,0L29,18l-.05,0"/><path class="cls-5" d="M29,18,18.37,12.24l.27.1L29.23,18.1A1.69,1.69,0,0,1,29,18"/><path class="cls-24" d="M29.23,18.1,18.64,12.34h0l10.59,5.76h0"/></g></g></g><g class="cls-2"><g class="cls-52"><g class="cls-2"><path class="cls-7" d="M30.87,17.61,20.28,11.85l.13-.13L31,17.48l-.13.13"/><path class="cls-8" d="M31,17.48,20.41,11.72l.15-.2,10.59,5.76-.15.2"/><path class="cls-9" d="M31.15,17.28,20.56,11.52a1.64,1.64,0,0,0,.14-.22l10.59,5.76a1.64,1.64,0,0,1-.14.22"/><path class="cls-10" d="M31.29,17.06,20.7,11.3a2.55,2.55,0,0,0,.13-.29l10.59,5.76a2.55,2.55,0,0,1-.13.29"/><path class="cls-11" d="M31.42,16.77,20.83,11a2.09,2.09,0,0,0,.11-1,1.59,1.59,0,0,0-.78-1.18l10.59,5.76a1.59,1.59,0,0,1,.78,1.18,2.09,2.09,0,0,1-.11,1"/></g></g></g><g class="cls-2"><g class="cls-53"><g class="cls-2"><path class="cls-21" d="M34.56,56.91,24,51.15C14.44,46,8.64,37.23,11.16,30.23L21.75,36C19.23,43,25,51.72,34.56,56.91"/><path class="cls-20" d="M21.75,36,11.16,30.23a9.68,9.68,0,0,1,.59-1.32l10.59,5.76A9.68,9.68,0,0,0,21.75,36"/><path class="cls-19" d="M22.34,34.67,11.75,28.91a11.42,11.42,0,0,1,.67-1.09L23,33.58a11.42,11.42,0,0,0-.67,1.09"/><path class="cls-18" d="M23,33.58,12.42,27.82a12.93,12.93,0,0,1,.81-1l10.59,5.76a9.53,9.53,0,0,0-.81,1"/><path class="cls-17" d="M23.82,32.56,13.23,26.8A9,9,0,0,1,14,26c.13-.13.25-.25.38-.36L25,31.43a4.27,4.27,0,0,0-.38.36c-.27.25-.52.51-.75.77"/><path class="cls-16" d="M25,31.43,14.36,25.67a14.62,14.62,0,0,1,1.49-1.19l10.59,5.76A14.62,14.62,0,0,0,25,31.43"/><path class="cls-30" d="M26.44,30.24,15.85,24.48a10.85,10.85,0,0,1,1.5-.87l10.58,5.76a10.77,10.77,0,0,0-1.49.87"/><path class="cls-31" d="M27.93,29.37,17.35,23.61A7.33,7.33,0,0,1,19.41,23L30,28.73a7.29,7.29,0,0,0-2.07.64"/></g></g></g><path class="cls-54" d="M50,28.21c8.2,5.53.52,20.42-12.78,30C24,52.36,16.34,39.62,24.57,31.79A10.13,10.13,0,0,1,30,28.73c4.77-.67,7.17,4.45,7.29,4.72.13-.3,2.55-6.1,7.31-6.77A7.67,7.67,0,0,1,50,28.21ZM37.26,48.77,40,48.38,38.63,42a3.17,3.17,0,0,0,1.11-2.38,2.16,2.16,0,0,0-2.45-2.31,3,3,0,0,0-2.47,3,2.33,2.33,0,0,0,1.1,2.07l-1.39,6.73,2.73-.38"/><g class="cls-2"><g class="cls-55"><g class="cls-2"><path class="cls-21" d="M28.91,18,18.32,12.21a1.59,1.59,0,0,1-.79-1.44,2.2,2.2,0,0,1,.13-.73L28.25,15.8a2.2,2.2,0,0,0-.13.73A1.59,1.59,0,0,0,28.91,18"/><path class="cls-20" d="M28.25,15.8,17.66,10a2.55,2.55,0,0,1,.13-.29l10.59,5.76a2.55,2.55,0,0,0-.13.29"/><path class="cls-19" d="M28.38,15.51,17.79,9.75c.05-.08.09-.16.14-.23l10.59,5.76c-.05.07-.09.15-.14.23"/><path class="cls-18" d="M28.52,15.28,17.93,9.52a1.56,1.56,0,0,1,.16-.2l10.59,5.76-.16.2"/><path class="cls-17" d="M28.68,15.08,18.09,9.32a1.37,1.37,0,0,1,.17-.17l10.59,5.76a1.37,1.37,0,0,0-.17.17"/><path class="cls-16" d="M28.85,14.91,18.26,9.15,18.47,9l10.59,5.76-.21.17"/><path class="cls-30" d="M29.06,14.74,18.47,9l.28-.16,10.59,5.76-.28.16"/><path class="cls-31" d="M29.34,14.58,18.75,8.82a2.07,2.07,0,0,1,.5-.15h.2a1.2,1.2,0,0,1,.38,0l10.59,5.76a1.58,1.58,0,0,0-.38,0h-.2a2.07,2.07,0,0,0-.5.15"/><path class="cls-30" d="M30.42,14.46,19.83,8.7l.28.1,10.58,5.76a1.69,1.69,0,0,0-.27-.1"/><path class="cls-16" d="M30.69,14.56,20.11,8.8l.05,0,10.59,5.76-.06,0"/></g></g></g><path class="cls-27" d="M53.47,5.83c4.79-.67,8.68,3,8.67,8.16l-.07,34.8c0,5.18-3.91,9.92-8.7,10.6L21.12,63.92c-4.8.67-8.68-3-8.67-8.15L12.52,21c0-5.17,3.9-9.92,8.7-10.6ZM37.25,58.23c13.3-9.6,21-24.49,12.78-30a7.67,7.67,0,0,0-5.43-1.53c-4.76.67-7.18,6.47-7.31,6.77-.12-.27-2.52-5.39-7.29-4.72a10.13,10.13,0,0,0-5.43,3.06c-8.23,7.83-.6,20.57,12.68,26.44m-7.41-43.8a2.13,2.13,0,0,0-1.72,2.1,1.54,1.54,0,0,0,1.14,1.58l1.84,6.77a.48.48,0,0,0,.53.36L43,23.64a.69.69,0,0,0,.53-.51l1.85-7.29a2.18,2.18,0,0,0,1.16-1.9,1.51,1.51,0,0,0-1.71-1.61l-.21,0a2.14,2.14,0,0,0-1.49,1.77,1.66,1.66,0,0,0,.65,1.65L40.89,19a.3.3,0,0,1-.18.1.22.22,0,0,1-.24-.12l-2.38-4a2.16,2.16,0,0,0,.94-2,1.5,1.5,0,0,0-1.5-1.37h-.2a2.14,2.14,0,0,0-1.71,2.1,1.57,1.57,0,0,0,.94,1.52l-2.39,4.72a.29.29,0,0,1-.24.18.2.2,0,0,1-.18-.05l-2.88-2.38a2.17,2.17,0,0,0,.66-1.84A1.49,1.49,0,0,0,30,14.42h-.2"/><path class="cls-54" d="M37.33,11.52h.2A1.5,1.5,0,0,1,39,12.88a2.16,2.16,0,0,1-.94,2l2.38,4a.22.22,0,0,0,.24.12.3.3,0,0,0,.18-.1l2.89-3.2a1.66,1.66,0,0,1-.65-1.65,2.14,2.14,0,0,1,1.49-1.77l.21,0a1.51,1.51,0,0,1,1.71,1.61,2.18,2.18,0,0,1-1.16,1.9l-1.85,7.29a.69.69,0,0,1-.53.51l-11.37,1.6a.48.48,0,0,1-.53-.36l-1.84-6.77a1.54,1.54,0,0,1-1.14-1.58,2.13,2.13,0,0,1,1.72-2.1H30a1.49,1.49,0,0,1,1.49,1.35,2.17,2.17,0,0,1-.66,1.84L33.75,20a.2.2,0,0,0,.18.05.29.29,0,0,0,.24-.18l2.39-4.72a1.57,1.57,0,0,1-.94-1.52A2.14,2.14,0,0,1,37.33,11.52Z"/><path class="cls-24" d="M54.82,5.76a7.18,7.18,0,0,1,1,.1l.18,0a9.32,9.32,0,0,1,.91.23l.15,0a6.93,6.93,0,0,1,1,.45L47.52.87,47.25.73a6.81,6.81,0,0,0-.74-.31l-.15,0L45.88.22,45.45.14l-.18,0a7,7,0,0,0-1-.1H44a8.63,8.63,0,0,0-1.12.07L10.63,4.6a9.25,9.25,0,0,0-1.16.26L9.18,5a9.56,9.56,0,0,0-1,.39l-.08,0h0l-.2.1-.56.3L7,6l-.35.22-.07.06A9.21,9.21,0,0,0,5.69,7L5.63,7l-.14.14c-.21.2-.42.41-.62.63l-.13.13L4.65,8A9.38,9.38,0,0,0,4,8.8L4,8.9v0a10.76,10.76,0,0,0-.63,1l-.06.11a3.59,3.59,0,0,0-.17.34,2.44,2.44,0,0,0-.14.28c-.1.2-.18.42-.27.63l-.07.18v0c-.06.16-.11.32-.16.48s-.09.26-.12.39-.09.36-.13.55-.06.24-.08.37-.07.42-.09.63,0,.21-.05.31c0,.32,0,.64,0,1L1.86,50a8.53,8.53,0,0,0,2.38,6.12,7.1,7.1,0,0,0,1.65,1.23l10.59,5.76a8.12,8.12,0,0,1-4-7.35L12.52,21c0-.32,0-.64,0-1,0-.11,0-.22,0-.33s.05-.41.08-.61l.09-.37c0-.19.08-.37.13-.55s.08-.26.12-.39.11-.34.17-.51l.07-.18c.08-.21.17-.43.27-.63a2.44,2.44,0,0,1,.14-.28c.07-.15.15-.3.23-.45a10.76,10.76,0,0,1,.63-1l.09-.12a9.38,9.38,0,0,1,.61-.77c.07-.09.15-.17.22-.25s.41-.43.62-.63l.2-.18A9.21,9.21,0,0,1,17.2,12l.42-.28.28-.18.55-.3.21-.1.09,0a8.94,8.94,0,0,1,1-.39l.29-.09a9.25,9.25,0,0,1,1.16-.26L53.47,5.83a8.53,8.53,0,0,1,1.12-.07Z"/></svg>